/* XPM */
static char *_9710_0e1f160e26e2a8ff58a855089e6fc2e81bbe0e8b990f72e2d9e0c678b3e8a2d9[] = {
/* columns rows colors chars-per-pixel */
"32 32 17 1 ",
"  c #302C2E",
". c #6A383D",
"X c #39314B",
"o c #2E3C6C",
"O c #5E3643",
"+ c #3C5956",
"@ c #397B44",
"# c #394778",
"$ c #7A444A",
"% c #874950",
"& c #A05B53",
"* c #DBA974",
"= c #28608A",
"- c #DCB58C",
"; c #E7B785",
": c #F4CCA1",
"> c None",
/* pixels */
">>>>>>>>>>>>>>>>>>>>>>>>>>>>>>>>",
">>>>>>>>>>>>>>>>>>>>>>>>>>>>>>>>",
">>>>>>>>>>>>>>>>>>>>>>>>>>>>>>>>",
">>>>>>>>>>>>>>>>>>>>>>>>>>>>>>>>",
">>>>>>>>>>>>>>>>>>>>>>>>>>>>>>>>",
">>>>>>>>>>>>>>>>>>>>>>>>>>>>>>>>",
">>>>>>>>>>>>>>>>>>>>>>>>>>>>>>>>",
">>>>>>>>>>>>>>>>>   >>>>>>>>>>>>",
">>>>>>>>>>>>>>   &&& >>>>>>>>>>>",
">>>>>>>>>>>>  &&&&&&& >>>>>>>>>>",
">>>>>>>>>>> $$$$$$$&& >>>>>>>>>>",
">>>>>>>>>>> $$*;;;;;& >>>>>>>>>>",
">>>>>>>>>>> $$:::::: >>>>>>>>>>>",
">>>>>>>>>>> ;&::#:#: >>>>>>>>>>>",
">>>>>>>>>>> *&&:o:o: >>>>>>>>>>>",
">>>>>>>>>>> %&&::-:: >>>>>>>>>>>",
">>>>>>>>>>> $%&&&&&& >>>>>>>>>>>",
">>>>>>>>>>>> $$$$$$$ >>>>>>>>>>>",
">>>>>>>>>>  =  ....  >>>>>>>>>>>",
">>>>>>>>> @ =@@  * @ >>>>>>>>>>>",
">>>>>>>>> @ =X == =@ >>>>>>>>>>>",
">>>>>>>>> + X* =#=#  >>>>>>>>>>>",
">>>>>>>>> + *: #=#=  >>>>>>>>>>>",
">>>>>>>>> + ;:* #=# * >>>>>>>>>>",
">>>>>>>>>>  ;*; =#= * >>>>>>>>>>",
">>>>>>>>>>>    =#=#  >>>>>>>>>>>",
">>>>>>>>>>>>XXXXXXX >>>>>>>>>>>>",
">>>>>>>>>>>> OOOOOO >>>>>>>>>>>>",
">>>>>>>>>>>> OOO OO >>>>>>>>>>>>",
">>>>>>>>>>>> O$O O$ >>>>>>>>>>>>",
">>>>>>>>>>>> $$$ O$$ >>>>>>>>>>>",
">>>>>>>>>>>> OOO OOO >>>>>>>>>>>"
};
