/* XPM */
static char *_2d00e3ba0c8425193aa5ab397d8dcfcufsSrBh76Mnf0KR1[] = {
/* columns rows colors chars-per-pixel */
"32 32 177 2 ",
"   c None",
".  c #39261F",
"X  c #2E2C28",
"o  c #2A2824",
"O  c #3C2721",
"+  c #322825",
"@  c #3D2B23",
"#  c #302E2A",
"$  c #35332D",
"%  c #3D3228",
"&  c #393631",
"*  c #3C3B33",
"=  c #422B24",
"-  c #463025",
";  c #42362B",
":  c #4E342A",
">  c #473A2F",
",  c #4A3B2F",
"<  c #53372E",
"1  c #563A2E",
"2  c #583A2F",
"3  c #433E36",
"4  c #4B3D31",
"5  c #433C39",
"6  c #493B3B",
"7  c #5C3D32",
"8  c #5A412E",
"9  c #45433C",
"0  c #49463D",
"q  c #49483E",
"w  c #4E4132",
"e  c #5E4231",
"r  c #504B3E",
"t  c #57493F",
"y  c #624533",
"u  c #664934",
"i  c #6B4D37",
"p  c #614F3A",
"a  c #6D4D39",
"s  c #704E3B",
"d  c #6F5039",
"f  c #73533C",
"g  c #7A573E",
"h  c #7C593F",
"j  c #494442",
"k  c #4D4A42",
"l  c #4B4C4C",
"z  c #474B4A",
"x  c #544742",
"c  c #534D45",
"v  c #5A4C43",
"b  c #564A49",
"n  c #5C4D4B",
"m  c #535147",
"M  c #55534A",
"N  c #5B534C",
"B  c #5B594E",
"V  c #4E5352",
"C  c #5E5C52",
"Z  c #565B5B",
"A  c #5A5C5C",
"S  c #5B5255",
"D  c #604E4E",
"F  c #635143",
"G  c #66584C",
"H  c #7D5A40",
"J  c #615151",
"K  c #625D52",
"L  c #685B51",
"P  c #605659",
"I  c #615C5A",
"U  c #6F5D5D",
"Y  c #745E57",
"T  c #725F5E",
"R  c #5A605F",
"E  c #646256",
"W  c #66645A",
"Q  c #686659",
"!  c #6C6A5D",
"~  c #786754",
"^  c #73625C",
"/  c #706D5F",
"(  c #776654",
")  c #695E61",
"_  c #5F6564",
"`  c #656461",
"'  c #6B6262",
"]  c #736262",
"[  c #716F61",
"{  c #7B6B64",
"}  c #766B6D",
"|  c #747263",
" . c #797667",
".. c #7A7769",
"X. c #7C7A6A",
"o. c #786C70",
"O. c #7A7272",
"+. c #787674",
"@. c #825D42",
"#. c #856045",
"$. c #8B6447",
"%. c #8C6548",
"&. c #837266",
"*. c #897660",
"=. c #867669",
"-. c #8A736A",
";. c #817D6D",
":. c #887B6F",
">. c #807376",
",. c #847D74",
"<. c #887D7D",
"1. c #857B7B",
"2. c #82806F",
"3. c #848271",
"4. c #898575",
"5. c #8B8977",
"6. c #8F877A",
"7. c #8E8C7A",
"8. c #908D7C",
"9. c #94927F",
"0. c #B0967C",
"q. c #8D8282",
"w. c #84838A",
"e. c #918585",
"r. c #948D82",
"t. c #968A8A",
"y. c #9A8D8E",
"u. c #969481",
"i. c #999582",
"p. c #9C9A85",
"a. c #9F9B8A",
"s. c #9E9292",
"d. c #919099",
"f. c #A08D82",
"g. c #A39D8C",
"h. c #B79D81",
"j. c #A29595",
"k. c #A4A28C",
"l. c #BBA184",
"z. c #ABA594",
"x. c #ADAB94",
"c. c #AEA699",
"v. c #B9A797",
"b. c #B2AC97",
"n. c #BAA897",
"m. c #B3AA9A",
"M. c #B9AE9D",
"N. c #B5B39B",
"B. c #BCB49F",
"V. c #9B9AA3",
"C. c #A7A7A7",
"Z. c gray66",
"A. c #A5A3AD",
"S. c #BCB2A3",
"D. c #B1AFBA",
"F. c #BABABB",
"G. c #C1A588",
"H. c #C3B2A2",
"J. c #C2BDA5",
"K. c #C7BCAB",
"L. c #CBBDAB",
"P. c #D0BBA9",
"I. c #CCCCAF",
"U. c #CEC1AC",
"Y. c #CFCDB1",
"T. c #D2CDB3",
"R. c #D9CCB7",
"E. c #D8D6B8",
"W. c #C6C6C6",
"Q. c #CBCBCB",
"!. c #D3D3D4",
"~. c #DDDDDD",
"^. c #E4E4E4",
"/. c #E2E1E2",
"(. c #EDEDED",
"). c #F2F2F4",
"_. c white",
/* pixels */
"                            Q Q B 7.                            ",
"                      9 E u.x.J.i.9.k.u.&                       ",
"                  k 7.7... . ...[ ! ! | b.N.k.                  ",
"                 .x.u.5.Q  . . .! ! E E p. . .9.                ",
"            Q i.! X.[ ..7.9 K m m M 0 3.| |  .M 7.              ",
"          M k.9.M  .| Q E % @ . . % @ E  .Q [ ! 7.k.            ",
"        q p. .| | k m k I t . I I - 3 I N c E a. . .i.          ",
"        E 3.! | Q E 2 ' C.:.= Z.Z.8 ' C.:.@ E ! ! | ! 2.        ",
"      7.Q k E Q 0 4.y b 6.*.= 1.i.y b 6.*.= X.r Q E B 5.m       ",
"      u.3.x.k 3 8 y z a a L 4 a i l a i L 4 u 8 9 Q x.| 7.      ",
"    9.5.|  .[ O ] ..y J <.Y < <.<.y J <.Y : O.} : m |  .k.      ",
"    u.2.!  .4 @ F.Q.g e.^.v.< ^.^.H e./.v.< !.W.u + [ Q 5.;.    ",
"    ! M B B p = e.M.@.^ H.l.7 c.L.@.] H.0.7 g.m.i % N M M |     ",
"  z.7.8.E $ c 4 d h R %.%.=.F %.%.` %.%.=.F @.h V i # 7.N.7.k   ",
"  Y.| X.2.q v = >.q.d ] s.-.e j.j.f ] j.-.7 t.q.e v M u.|  .m   ",
"  E.| X.[ ` =.= Q./.#.j._.L.e _._.%.j._.L.7 (./.d o.+.u.| [ M   ",
"  Y.C E Q M ~ = r.S.@.{ L.G.7 S.R.%.{ U.G.7 c.S.f D K a.! B 9   ",
"  ..0 k q ; v 4 s H R %.%.-.G %.%.` %.%.=.F @.H V i w C k 9 9   ",
"  E.k.z.2.j x = >.q.a T j.-.e j.s.H ' j.-.7 t.q.e b N B.k.k.M   ",
"  I.[ | W W =.= Q.~.@.j._.P.7 _._.%.j._.P.7 (.~.f } +.i.|  .B   ",
"  I.E R / M ~ = 8.M.@.{ L.G.e S.R.$.{ L.G.7 c.H.f N C k.! Q k   ",
"  U.m E ! ; x , a g Z $.$.&.F %.$._ $.$.=.F @.g V i 4 4.E B m   ",
"  X.2.2.I j x = O.1.a T j.-.7 j.j.f T j.-.7 t.q.e b N 3.2.2.9   ",
"  I.|  .W W { = W.~.H j._.L.7 _._.#.j._.L.7 (./.f o.+.u.!  .0   ",
"  E.| [ Q M ( @ 6.m.h { K.l.7 M.R.#.{ K.h.2 c.M.a N C p...[ k   ",
"  U.Q Q Q % 0 ; y f Z #.#.&.F @.@.` @.@.=.F h f V u 4 i.Q C q   ",
"  3.q 9 9 6 t O o.<.u U s.&.7 s.s.s T s.&.7 t.<.7 v c C k 9 *   ",
"  N.7.u.X.A { O F.Q.f y.).H.7 ).).@.y.).H.2 /.!.i } +.g.5.8.&   ",
"  k.M B B m L . ,.g.f T M.0.2 c.K.@.T M.0.1 g.z.a b B 3.B B $   ",
"  u.q q k % 0 ; y i Z h @.&.v @.@._ @.H &.v f f V y 4 X.M q $   ",
"  9.$ * * * 4 . P ) e n >.Y 7 o.>.i D >.Y 1 o.' 1 4 j Q $ & o   ",
"  & $ & & k J . w.d.s } D.f.< D.D.H } D.f.1 A.V.i S A $ $ $ X   "
};
