/* XPM */
static char *_c9a43efa208428fcf804064f223c599psBTjUpCIsHbeKIN[] = {
/* columns rows colors chars-per-pixel */
"32 32 182 2 ",
"   c None",
".  c #39261F",
"X  c #2C2A26",
"o  c #3E2821",
"O  c #332F29",
"+  c #362620",
"@  c #35332D",
"#  c #3F342A",
"$  c #383630",
"%  c #3D3A33",
"&  c #422C24",
"*  c #42362C",
"=  c #4C322A",
"-  c #4A3A2D",
";  c #46392E",
":  c #553A2D",
">  c #583A2F",
",  c #403F37",
"<  c #4C3D31",
"1  c #453F3A",
"2  c #5B3C31",
"3  c #3C403F",
"4  c #5B412F",
"5  c #45433C",
"6  c #4A453C",
"7  c #49483E",
"8  c #5E4232",
"9  c #53463D",
"0  c #5B4B3E",
"q  c #514636",
"w  c #624632",
"e  c #674935",
"r  c #6A4C36",
"t  c #6D4D39",
"y  c #6F5039",
"u  c #74533B",
"i  c #79573E",
"p  c #7C593F",
"a  c #3E4141",
"s  c #494542",
"d  c #4D4B41",
"f  c #4D4C4B",
"g  c #454846",
"h  c #544644",
"j  c #544C44",
"k  c #5C4E42",
"l  c #544C4A",
"z  c #5B4F4A",
"x  c #535147",
"c  c #555349",
"v  c #5B534B",
"b  c #5B594E",
"n  c #4E5352",
"m  c #545656",
"M  c #5E5C52",
"N  c #565B5B",
"B  c #5C5D5C",
"V  c #625142",
"C  c #64534D",
"Z  c #7D5A40",
"A  c #625C53",
"S  c #605F5D",
"D  c #6E5D5C",
"F  c #725F5E",
"G  c #71614F",
"H  c #646256",
"J  c #66645A",
"K  c #686659",
"L  c #6C6A5D",
"P  c #756452",
"I  c #746B5E",
"U  c #7A6A5A",
"Y  c #5F6564",
"T  c #636260",
"R  c #6B6363",
"E  c #6C6964",
"W  c #6D6C6A",
"Q  c #716F61",
"!  c #7A6B64",
"~  c #756C6C",
"^  c #796F6F",
"/  c #757264",
"(  c #797567",
")  c #797768",
"_  c #7C7A6A",
"`  c #76716A",
"'  c #6B6B70",
"]  c #767572",
"[  c #7C7473",
"{  c #78777C",
"}  c #815D42",
"|  c #856045",
" . c #8B6447",
".. c #8C6448",
"X. c #856749",
"o. c #927150",
"O. c #846F66",
"+. c #837366",
"@. c #857469",
"#. c #897269",
"$. c #817D6D",
"%. c #877D7C",
"&. c #857B7B",
"*. c #82806F",
"=. c #848271",
"-. c #888674",
";. c #8B8977",
":. c #8E8B7A",
">. c #8C867E",
",. c #918F7C",
"<. c #94927F",
"1. c #A08970",
"2. c #848486",
"3. c #8D8281",
"4. c #85848B",
"5. c #898989",
"6. c #958A89",
"7. c #9B8F8F",
"8. c #928B80",
"9. c #969481",
"0. c #999683",
"q. c #9C9A85",
"w. c #9B948A",
"e. c #9F9D88",
"r. c #8F8F90",
"t. c #929296",
"y. c #9E9292",
"u. c #929199",
"i. c #A19183",
"p. c #A39C8B",
"a. c #B69C81",
"s. c #A19494",
"d. c #A89F90",
"f. c #A4A28C",
"g. c #BBA184",
"h. c #AAA494",
"j. c #ADAB94",
"k. c #ABA498",
"l. c #B2AB97",
"z. c #B9AF9D",
"x. c #B7AC9B",
"c. c #B5B39B",
"v. c #B9B79E",
"b. c #9D9DA4",
"n. c #A09FA6",
"m. c #A2A2A4",
"M. c #A8A7AC",
"N. c #B6AEA1",
"B. c #BCB2A2",
"V. c #AEACB3",
"C. c #B1AFBA",
"Z. c #B0AFB4",
"A. c #B5B5B5",
"S. c #BABABD",
"D. c #B5B4BB",
"F. c #C1A588",
"G. c #C7B4A4",
"H. c #CAB7A6",
"J. c #C1BFA5",
"K. c #C6BBAA",
"L. c #CCBCAA",
"P. c #D0BBA9",
"I. c #CCCCAF",
"U. c #D2C2AF",
"Y. c #CFCDB1",
"T. c #D2CDB3",
"R. c #D5C9B4",
"E. c #D8D6B8",
"W. c #BFBEC4",
"Q. c #C5C5C5",
"!. c #C2C0C9",
"~. c #CBCBCC",
"^. c #CFCFD3",
"/. c #D4D4D5",
"(. c #D3D2D8",
"). c #DDDDDD",
"_. c #E0DFE3",
"`. c #E3E2E5",
"'. c #EDEDED",
"]. c #F2F2F4",
"[. c #FEFEFE",
"{. c #FFFFFF",
/* pixels */
"                            H L b :.                            ",
"                      5 H 9.f.I.9.<.f.9.@                       ",
"                  d :.<.) ( _ ) L L L / j.v.f.                  ",
"                ( j.<.-.L / ( / L L H H q._ / <.                ",
"            K 0.L $.L _ :.5 b j c c 6 *.I / _ c :.              ",
"          c f.<.c / Q K A c + 5.5.- 5 H ) L L L :.f.            ",
"        7 q.( / / j c O / P . E $.: 5 / q x H p./ _ 0.          ",
"        H =.L / K 6 3 4 4 j * 2 4 3 2 4 j * 5 I L / L *.        ",
"      :.K 7 H K M R = h ~ C & ~ ~ : h ^ C & E A K H M -.x       ",
"      9.-.j.7 , m.A.r [ Q.i.= Q.Q.t [ Q.i.& S.M.6 L j./ :.      ",
"    <.-./ ( L . @.p.u A d.1.= w.k.i C d.1.= >.0.4 x _ ) f.      ",
"    9.=.L ( s * e y m p Z I 0 Z Z m Z i U 0 u t g - I H -.$.    ",
"    L c b M C & [ 3.t D 7.O.2 y.7.t F 7.O.2 3.%.2 j c c c /     ",
"  j.:.:.H @ $.& ~._. .s.{.P.2 {.{...s.[.P.8 '.).u ^ @ :.c.<.s   ",
"  Y./ _ *.c U & 9.B.} ! L.F.8 B.R...! L.F.2 k.z.u v M <./ _ c   ",
"  E./ _ L ; j - t Z B ....@.V ....Y  . .#.V } i n r q <./ Q c   ",
"  Y.b A K s h & &.%.t R s.#.2 s.s.u F s.#.2 6.>.2 h c p.L A 5   ",
"  _ 7 j 5 T @.& ~._.} s.{.P.2 {.{. .s.{.P.2 '._.u ^ ] A d , ,   ",
"  T.f.j.*.c P & ,.x.Z ! L.g.2 N.R.X.! K.g.> k.z.y z A v.f.f.c   ",
"  I./ Q K * 9 - r u B } | @.V | } T  .} #.V p u m w < 0./ _ b   ",
"  I.H H E s h o @.3.w F s.#.2 y.s.t F y.#.> 6.>.8 h c f.L L d   ",
"  I.j H L J ( o !.).Z s.{.H.> {.{.} s.{.H.> '._.t ^ ] -.H c x   ",
"  _ _ *.H c G o >.k.u ! K.a.> N.R.} ! K.a.> h.x.r z b *._ *.5   ",
"  I./ _ H # 9 * e t N Z Z O.k } } Y Z } +.j u y n w q 0.E ( 7   ",
"  T./ E L 5 6 o [ %.w F s.O.: s.s.r F y.O.: 6.3.: j l e.) / 7   ",
"  I.K K L H ! + Q./.y s.{.G.: {.{.Z y.{.G.: '._.e ^ ] q.J M 7   ",
"  =.5 5 5 B @.o Q./.X.7.[.L.w [.{.o.y.{.L.8 '.).Z ` ] M 7 5 3   ",
"  c.,.9._ J 2.` D.^.w.(.]./.k.].].k./.].(.k.`.(.3.m.] f.:.,.@   ",
"  f.c b b H r.b.V.W.^._.`.`.`.`.`.`.`.`._._.(.~.S.V.W =.b b @   ",
"  <.7 5 s N 2.t.b.V.W.^.(.(.(.(.(.(.(.(.(.(.!.W.V.n.W _ c 7 O   ",
"  <.@ % % f { 4.u.b.C.W.!.!.!.!.!.!.!.!.W.W.D.V.n.u.S K @ % X   ",
"  % @ % @ f ' { 4.u.b.M.C.W.C.C.C.C.C.C.C.V.M.b.u.5.B @ @ @ X   "
};
