/* XPM */
static char *fb19906cb32f40439dd1f3a96e17dc3fBNS5drWrcJICzRTR[] = {
/* columns rows colors chars-per-pixel */
"32 32 151 2 ",
"   c None",
".  c #2A2824",
"X  c #2E2C28",
"o  c #302E2A",
"O  c #35332D",
"+  c #383630",
"@  c #3C3B33",
"#  c #403F37",
"$  c #403E38",
"%  c #45443B",
"&  c #49473E",
"*  c #49483E",
"=  c #4D4B41",
"-  c #4D4C4B",
";  c #514F45",
":  c #535147",
">  c #555349",
",  c #58564C",
"<  c #5B594E",
"1  c #575655",
"2  c #5E5C53",
"3  c #5E5D5B",
"4  c #605E52",
"5  c #605F5B",
"6  c #646256",
"7  c #64625C",
"8  c #686659",
"9  c #6C6A5D",
"0  c #706D5F",
"q  c #646361",
"w  c #6A6966",
"e  c #6D6C6A",
"r  c #716F61",
"t  c #747263",
"y  c #787667",
"u  c #72716E",
"i  c #797768",
"p  c #7C7A6A",
"a  c #6B6B70",
"s  c #767573",
"d  c #787774",
"f  c #7A7976",
"g  c #77767D",
"h  c #78777B",
"j  c #807E6E",
"k  c #82806F",
"l  c #848271",
"z  c #888674",
"x  c #8B8977",
"c  c #8E8C7A",
"v  c #918F7C",
"b  c #94927F",
"n  c #848487",
"m  c #898987",
"M  c #85848B",
"N  c #898989",
"B  c #969481",
"V  c #999783",
"C  c #9C9A85",
"Z  c #9F9D88",
"A  c #8F8F90",
"S  c #949497",
"D  c #999897",
"F  c #929199",
"G  c #9A9A9A",
"H  c #A19F89",
"J  c #A4A28C",
"K  c #A9A791",
"L  c #ADAB94",
"P  c #B1AF97",
"I  c #B5B39B",
"U  c #B9B79E",
"Y  c #9D9DA4",
"T  c #A09FA6",
"R  c #A4A4A5",
"E  c #A5A3AD",
"W  c #AAAAAA",
"Q  c #AEACB3",
"!  c #B0AFB4",
"~  c #B1AFBA",
"^  c #B5B5B5",
"/  c #B5B4BB",
"(  c #BABABB",
")  c #C1BFA5",
"_  c #CDCDAF",
"`  c #CBCBAF",
"'  c #CFCDB1",
"]  c #D1CFB3",
"[  c #D3D1B3",
"{  c #DDDBBD",
"}  c #BFBEC4",
"|  c #C1C1C1",
" . c #C3C3C3",
".. c gray77",
"X. c #C5C5C5",
"o. c #C6C6C6",
"O. c gray78",
"+. c #C3C3C3",
"@. c #C2C0C9",
"#. c #C8C7C9",
"$. c #C9C9C9",
"%. c #CBCBCB",
"&. c #CACACA",
"*. c #CDCDCD",
"=. c gray80",
"-. c gray81",
";. c #CACACC",
":. c #CFCFD3",
">. c #D0D0D0",
",. c gray82",
"<. c #D2D2D2",
"1. c LightGray",
"2. c gray83",
"3. c #D5D5D5",
"4. c gray84",
"5. c #D3D3D4",
"6. c #D3D2D8",
"7. c #D8D8D8",
"8. c gray85",
"9. c #DBDBDB",
"0. c #DDDDDD",
"q. c gainsboro",
"w. c #DFDFDF",
"e. c gray87",
"r. c #DEDEDF",
"t. c #E0DFE3",
"y. c gray88",
"u. c #E1E1E1",
"i. c gray89",
"p. c #E4E4E4",
"a. c gray90",
"s. c #E3E2E6",
"d. c gray92",
"f. c #ECECEC",
"g. c gray93",
"h. c #EEEEEE",
"j. c #EFEFEF",
"k. c #EBEBEB",
"l. c #EFEFF1",
"z. c #F1F1F1",
"x. c gray95",
"c. c #F3F3F3",
"v. c #F4F4F4",
"b. c #F2F2F4",
"n. c gray98",
"m. c #FBFBFB",
"M. c gray99",
"N. c #FDFDFD",
"B. c #FEFEFE",
"V. c white",
"C. c #FDFDFD",
/* pixels */
"                            8 9 < c                             ",
"                      $ 6 B P U B b J B O                       ",
"                  = v v p y y p r 9 9 t P I J                   ",
"                p K b z 8 y y y 9 9 4 6 Z y t b                 ",
"            8 V 9 p 0 p c & 2 = > > = l w t p > c               ",
"          > J v > y t 6 2 7 d N N s 3 6 p 9 9 9 c J             ",
"        & C y t t = : w G G D D D D D D w : 8 H y y B           ",
"        6 k r t 8 3 R W W R W R R W R R R R 2 9 9 t 9 k         ",
"      c 8 * 8 8 2 R ^ ^ ( ^ ^ ^ ^ ^ ^ ^ ^ ^ W 2 6 6 2 l :       ",
"      B z L * 2 R ! ` o.O.$.O.O.O.O.O.O.X.| ^ W 2 9 L t c       ",
"    b z r y 9 Y W | :.6.2.2.2.2.2.2.2.2.5.>.O.( W = p y J       ",
"    B l 0 y w R ( ;.r.s.p.p.p.p.i.u.i.i.s.e.,.O.( s r 8 z j     ",
"    9 : < 2 m ^ O.7.k.c.c.c.v.c.c.c.c.c.c.g.u.,.@.F , > > t     ",
"  K c c 6 O W ( *.u.v.B.B.B.B.B.B.B.B.B.B.m.d.0.<.` O c I v =   ",
"  _ r j j q R ( *.u.c.B.B.B.B.B.B.B.B.B.B.m.k.u.<.@.s b t y :   ",
"  { t p 0 q R ( *.e.c.B.B.B.B.B.B.B.B.B.B.m.g.e.,. .s V t r >   ",
"  ' 2 6 6 q R ( =.0.c.B.B.B.B.B.B.B.B.B.B.m.g.u.,.| d Z 9 < %   ",
"  p & = & 7 R ^ $.0.c.B.B.B.B.B.B.B.B.B.B.m.g.0.,.O.d 2 = % #   ",
"  [ J L l q R ^ $.0.g.B.B.B.B.B.B.B.B.B.B.B.g.u.,.| d U J K ,   ",
"  ` r t 8 7 R ^ $.0.c.B.B.B.B.B.B.B.B.B.B.m.g.0.,.| d C 0 y <   ",
"  ' 6 6 w 7 R ^ $.8.g.B.B.B.B.B.B.B.B.B.B.B.g.0.,. .d J 9 8 =   ",
"  ) > 6 9 7 G ^ $.8.g.B.B.B.B.B.B.B.B.B.B.m.g.u.,. .s z 6 < :   ",
"  p j k 6 q G ^ O.8.g.B.B.B.B.B.B.B.B.B.B.m.g.u.,.O.d l j j %   ",
"  _ t p 8 q G ^ O.8.g.B.B.B.B.B.B.B.B.B.B.B.g.u.,. .d V 9 y *   ",
"  [ t r 8 5 Y ^ ..7.k.M.B.B.B.B.B.B.B.B.B.m.g.0.,.O.s Z p r *   ",
"  ) 8 8 9 5 G W ..4.k.M.B.B.B.B.B.B.B.B.B.m.g.u.,.| d V 6 2 *   ",
"  l & % % 3 G ^ @.2.d.m.B.B.B.B.B.B.B.B.B.m.k.u.,.| s 2 ; # #   ",
"  I c B p 5 S W ( ;.q.l.b.b.c.b.b.b.b.b.b.l.s.2.#.( s J z v +   ",
"  J > < < 5 A Y Q } :.t.s.s.s.s.s.s.s.s.s.t.6.@.( Q e l < < O   ",
"  B * & = 1 n S Y ~ } :.6.6.6.6.6.6.6.6.6.6.@.} Q R w p > = o   ",
"  b + @ @ - h n F Y Q } @.@.@.@.@.@.@.@.@.} / Q T F q 8 O + .   ",
"  + O + O - a h M F Y Q ~ ~ ~ ~ ~ ~ ~ / ~ Q E Y F M 3 O O O X   "
};
