/* XPM */
static char *b939a9aabc1e4a619b53438343f7d225WyCOwIBgRO6Rdz0Y[] = {
/* columns rows colors chars-per-pixel */
"32 32 177 2 ",
"   c None",
".  c #2A2824",
"X  c #2E2C28",
"o  c #312520",
"O  c #3B2720",
"+  c #312924",
"@  c #3E2921",
"#  c #302E2A",
"$  c #35332D",
"%  c #3C332A",
"&  c #3C3126",
"*  c #383630",
"=  c #3D3A33",
"-  c #383B3B",
";  c #432C24",
":  c #4B3427",
">  c #403329",
",  c #493A2D",
"<  c #4A372C",
"1  c #52362C",
"2  c #543A2C",
"3  c #403F37",
"4  c #403E38",
"5  c #4C3F3F",
"6  c #583A30",
"7  c #5A412E",
"8  c #4E4134",
"9  c #45443B",
"0  c #4A463D",
"q  c #49483E",
"w  c #514236",
"e  c #5E4232",
"r  c #5C4C3F",
"t  c #624533",
"y  c #664934",
"u  c #694B36",
"i  c #6E4E38",
"p  c #6F5039",
"a  c #75543C",
"s  c #7B593F",
"d  c #4D4B41",
"f  c #4D4C4B",
"g  c #454543",
"h  c #554744",
"j  c #524E44",
"k  c #5C4C44",
"l  c #534A48",
"z  c #5A4E49",
"x  c #535147",
"c  c #555349",
"v  c #5B544C",
"b  c #5B594E",
"n  c #4E5252",
"m  c #575655",
"M  c #5E5C52",
"N  c #5D5D5C",
"B  c #675A4D",
"V  c #7B5B41",
"C  c #665655",
"Z  c #615E53",
"A  c #605F5B",
"S  c #705E5D",
"D  c #646256",
"F  c #6D6055",
"G  c #64635B",
"H  c #686659",
"J  c #6C6A5D",
"K  c #79655D",
"L  c #706D5F",
"P  c #766553",
"I  c #5F6564",
"U  c #646360",
"Y  c #6B6363",
"T  c #696867",
"R  c #6D6C6A",
"E  c #716F61",
"W  c #796963",
"Q  c #746B6B",
"!  c #786F6F",
"~  c #757264",
"^  c #787667",
"/  c #7B7668",
"(  c #7C7A6A",
")  c #6B6B70",
"_  c #767572",
"`  c #7A7674",
"'  c #7B7974",
"]  c #77767D",
"[  c #78777B",
"{  c #805C41",
"}  c #896A4B",
"|  c #927150",
" . c #846F66",
".. c #817265",
"X. c #817E6E",
"o. c #8F7B65",
"O. c #917C66",
"+. c #807675",
"@. c #827B75",
"#. c #857B7B",
"$. c #82806F",
"%. c #848271",
"&. c #8A8675",
"*. c #8B8977",
"=. c #8E877D",
"-. c #8E8C7A",
";. c #918E7C",
":. c #938478",
">. c #94927F",
",. c #8C8181",
"<. c #85848B",
"1. c #8E8E8E",
"2. c #848487",
"3. c #908686",
"4. c #928C82",
"5. c #958988",
"6. c #998D8D",
"7. c #969481",
"8. c #999583",
"9. c #9C9A85",
"0. c #9F9D88",
"q. c #8F8F90",
"w. c #939396",
"e. c #9F9493",
"r. c #929199",
"t. c #9D9D9D",
"y. c #A39D8A",
"u. c #B59C81",
"i. c #A09493",
"p. c #A4A28C",
"a. c #A7A095",
"s. c #A9A592",
"d. c #ADAB94",
"f. c #AFA89C",
"g. c #B1AF97",
"h. c #B3AB9D",
"j. c #B9AE9D",
"k. c #B5B39B",
"l. c #B9B79E",
"z. c #9D9DA4",
"x. c #A09FA6",
"c. c #A2A1A3",
"v. c #ABABAB",
"b. c #A5A3AD",
"n. c #B6AEA1",
"m. c #AEACB3",
"M. c #B0AFB4",
"N. c #B1AFBA",
"B. c #B6B6B6",
"V. c #B3B3B3",
"C. c #BABABC",
"Z. c #B5B4BB",
"A. c #C1AE9E",
"S. c #C7B4A4",
"D. c #C1BFA5",
"F. c #C4B9A9",
"G. c #CCCCAF",
"H. c #CFCDB1",
"J. c #D2C3B0",
"K. c #D1CFB3",
"L. c #D8D6B8",
"P. c #BFBEC4",
"I. c #C4C4C4",
"U. c #C2C0C9",
"Y. c #C8C7C9",
"T. c #CAC9CA",
"R. c #CFCFD3",
"E. c #D2D2D3",
"W. c #D3D2D8",
"Q. c #DDDDDD",
"!. c #E0DFE3",
"~. c #E2E1E4",
"^. c #EDEDED",
"/. c #EFEFF1",
"(. c #F3F3F3",
"). c #F2F2F4",
"_. c #FEFEFE",
/* pixels */
"                            D J b -.                            ",
"                      4 D 7.d.D.7.>.p.7.%                       ",
"                  j -.-.( ^ ^ ( ~ J J ~ g.k.p.                  ",
"                ^ d.>.*.H ^ ^ ^ J H D D 0.^ ~ >.                ",
"            H 8.J ( R ^ -.9 M j x c 0 %.E ~ ^ c -.              ",
"          c p.>.c ^ E H Z 8 o Z L , + D ^ J R J -.p.            ",
"        q 9.^ ~ ~ j z > 2 0 & 2 2 - 2 2 % x D p.^ ^ 7.          ",
"        D %.J ~ H Z : g Y k O Y Y : 5 G z O M J J ~ J $.        ",
"      -.H d D H m v.e Q B.:.; B.B.t Q B.:.@ v.M H D b &.x       ",
"      7.&.d.d = ~ ;.y z >.O.: :.y.u z 8.O.; @.:.0 H d.~ -.      ",
"    >.&.~ ^ J & 7 y f a i S w i i m i i F 8 y t g x ^ ^ p.      ",
"    7.%.J ^ % O Q +.e C 3.K 1 3.,.t C 3.K : #.` : + ~ D &.X.    ",
"    J x b b B @ Y.W.a 6.).A.6 (.(.V 6.).A.1 !.E.t l c c c ~     ",
"  s.-.;.D $ P @ 4.l.V W F.u.6 n.J.{ W F.u.2 a.j.u z $ -.k.;.d   ",
"  K.~ ( $.& j , y p N { { ..k { V U { { ..k a a n t , 7.~ ( x   ",
"  L.~ ( E d h O +.,.y S i. .6 i.i.u S i. .2 5.,.2 h c 7.~ L c   ",
"  K.b D D T ..@ T.!.a e._.S.6 _._.V i._.S.2 ^.!.y / _ 0.J M 9   ",
"  ^ d d 0 U X.; T.Q.} e._.J.e _._.| i._.J.e ^.Q.V ! ` Z d 9 3   ",
"  K.p.s.$.U 1.' T.Q.a.~._.~.n._._.h.!._.!.f.^.Q.4.v._ l.p.s.c   ",
"  G.~ ~ H G c.B.T.Q.^._._._._._._._._._._._.^.!.R.I.` 7.E ^ b   ",
"  G.D Z J U c.V.Y.Q.^._._._._._._._._._._._.^.Q.R.I._ p.J H d   ",
"  G.x D J U c.V.Y.Q.^._._._._._._._._._._._.^.~.E.I._ &.D b x   ",
"  ( ( $.D G c.V.H.Q.^._._._._._._._._._._._.^.Q.E.I.' $.$.$.9   ",
"  G.^ ^ D I t.M.U.E.^._._._._._._._._._._._.^.Q.R.I.' 7.J ^ 0   ",
"  K.~ E H A t.V.I.W.^._._._._._._._._._._._.^.!.E.I._ 0.( E d   ",
"  G.H D J G t.M.I.W.^._._._._._._._._._._._.^.~.E.I._ 9.D M q   ",
"  @.q 9 9 A t.v.P.W.~.)._._._._._._._._._.(.^.Q.R.G.] Z d 9 3   ",
"  k.>.>.( A w.v.P.R.!./.).)./.).).(.).(.(.(.~.W.I.C.) p.&.-.*   ",
"  p.c M b G q.c.P.P.P.!.~.!.!.!.~.~.~.~.~.!.W.U.C.M.R %.b b $   ",
"  7.q 9 q m 2.q.r.P.P.R.W.W.W.R.W.W.W.W.W.W.U.P.M.c.T ( c d X   ",
"  >.* = = f [ 2.r.z.b.P.U.U.P.P.P.P.U.U.U.P.Z.b.x.r.U H $ * .   ",
"  * $ * * f ) ] <.r.z.b.P.P.P.m.P.N.N.P.N.m.b.z.r.q.N $ $ $ X   "
};
