/* XPM */
static char *result[] = {
/* columns rows colors chars-per-pixel */
"100 98 45 1 ",
"  c black",
". c gray2",
"X c #060606",
"o c #090909",
"O c #0E0E0E",
"+ c #131313",
"@ c #1D1D1D",
"# c #232323",
"$ c gray15",
"% c gray16",
"& c #225A11",
"* c #246012",
"= c #2E7917",
"- c #2D7A17",
"; c #2E7A17",
": c #2E7B17",
"> c #2E7A18",
", c #337C1C",
"< c #535353",
"1 c gray35",
"2 c #40822C",
"3 c #43832F",
"4 c #4C873A",
"5 c #548A43",
"6 c #548A44",
"7 c #5C8E4D",
"8 c #649156",
"9 c #6C9460",
"0 c #75986A",
"q c #77996D",
"w c #7D9C74",
"e c #859F7D",
"r c gray54",
"t c #8CA286",
"y c #8DA386",
"u c #92A58D",
"i c #95A690",
"p c #9EAA9A",
"a c #9EAA9B",
"s c #A2A2A2",
"d c #A9AEA7",
"f c #AEB1AD",
"g c #B1B2B1",
"h c gray70",
"j c None",
/* pixels */
"jjjjjjjjjjjjjjjjjjjjjjjjjjjjjj                                             jjjjjjjjjjjjjjjjjjjjjjjjj",
"jjjjjjjjjjjjjjjjjjjjjjjjjjjjjj                                             jjjjjjjjjjjjjjjjjjjjjjjjj",
"jjjjjjjjjjjjjjjjjjjjjjjjjjjjjj++++  %11111111111111111111111111111111111111jjjjjjjjjjjjjjjjjjjjjjjjj",
"jjjjjjjjjjjjjjjjjjjjjjjjjjj   $$$$  <hhhhhhhhhhhhhhhhhhhhhhhhhhhhhhhhhhhhhh  jjjjjjjjjjjjjjjjjjjjjjj",
"jjjjjjjjjjjjjjjjjjjjjjjjjjj   $$$$  <hhhhhhhhhhhhhhhhhhhhhhhhhhhhhhhhhhhhhh  jjjjjjjjjjjjjjjjjjjjjjj",
"jjjjjjjjjjjjjjjjjjjjjjjjj  @$$$$  hhhhhhhhhhhhhhhhhhhhhhhhhhhhhhhhhhhhhhhhhhh   jjjjjjjjjjjjjjjjjjjj",
"jjjjjjjjjjjjjjjjjjjjjjjjj  @$$$$  hhhhhhhhhhhhhhhhhhhhhhhhhhhhhhhhhhhhhhhhhhh   jjjjjjjjjjjjjjjjjjjj",
"jjjjjjjjjjjjjjjjjjjjj    $$$$$  hhhhhhhhhhhhhhhhhhhhhhhhhhhhhhhhhhhhhhhhhhhhhhhs    jjjjjjjjjjjjjjjj",
"jjjjjjjjjjjjjjjjjjjjj    $$$$$  hhhhhhhhhhhhhhhhhhhhhhhhhhhhhhhhhhhhhhhhhhhhhhhs    jjjjjjjjjjjjjjjj",
"jjjjjjjjjjjjjjjjjj   $$$$$$o  hhhhhhhhhhhhhhhhhhhhhhhhhhhhhhhhhhhhhhhhhhhhhhhhhhhhhh  jjjjjjjjjjjjjj",
"jjjjjjjjjjjjjjjjjj   $$$$$$o  hhhhhhhhhhhhhhhhhhhhhhhhhhhhhhhhhhhhhhhhhhhhhhhhhhhhhh  jjjjjjjjjjjjjj",
"jjjjjjjjjjjjjjjjjj   $$####+OOhhhhhhhhhhhhhhhhhhhhhhhhhhhhhhhhhhhhhhhhhhhhhhhhhhhhhh  jjjjjjjjjjjjjj",
"jjjjjjjjjjjjjjjjjj   $$    rhhhhhhhhhhhhhhhhhhhhhhhhhhhhhhhhhhhhhhhhhhhhhhhhhhhhhhhh  jjjjjjjjjjjjjj",
"jjjjjjjjjjjjjjjjjj   $$    rhhhhhhhhhhhhhhhhhhhhhhhhhhhhhhhhhhhhhhhhhhhhhhhhhhhhhhhh  jjjjjjjjjjjjjj",
"jjjjjjjjjjjjjj    $$$$$  hhhhhhhhhhhhhhhhhhhhhhhhhhhhhhhhhhhhhhhhhhhhhhhhhhhhhhhhhhhhhX    jjjjjjjjj",
"jjjjjjjjjjjjjj    $$$$$  hhhhhhhhhhhhhhhhhhhhhhhhhhhhhhhhhhhhhhhhhhhhhhhhhhhhhhhhhhhhhX    jjjjjjjjj",
"jjjjjjjjjjjj  $$$$$$$  hhhhhhhhhhhhhhhhhhhhhhhhhhhhhhhhhhhhhhhhhhhhhhhhhhhhhhhhhhhhhhhhhhhh  jjjjjjj",
"jjjjjjjjjjjj  $$$$$$$  hhhhhhhhhhhhhhhhhhhhhhhhhhhhhhhhhhhhhhhhhhhhhhhhhhhhhhhhhhhhhhhhhhhh  jjjjjjj",
"jjjjjjjjjjjj  $$$$...  hhhhhhhhhhhhhhhhhhhhhhhhhhhhhhhhhhhhhhhhhhhhhhhhhhhhhhhhhhhhhhhhhhhh  jjjjjjj",
"jjjjjjjjjjjj  $$$$     hhhhhhhhhhhhhhhhhhhhhhhhhhhhhhhhhhhhhhhhhhhhhhhhhhhhhhhhhhhhhhhhhhhh  jjjjjjj",
"jjjjjjjjjjjj  $$$$     hhhhhhhhhhhhhhhhhhhhhhhhhhhhhhhhhhhhhhhhhhhhhhhhhhhhhhhhhhhhhhhhhhhh  jjjjjjj",
"jjjjjjjjjjjj  $$$$   hhhhhhhhhhhhhhhhhhhhhhhhhhhhhhhhhhhhhhhhhhhhhhhhhhhhhhhhhhhhhhhhhhhhhh  jjjjjjj",
"jjjjjjjjjjjj  $$$$   hhhhhhhhhhhhhhhhhhhhhhhhhhhhhhhhhhhhhhhhhhhhhhhhhhhhhhhhhhhhhhhhhhhhhh  jjjjjjj",
"jjjjjjjjjjjj  $$$$   hhhhhhhhhhhhhhhhhhhhhhhhhhhhhhhhhhhhhhhhhhhhhhhhhhhhhhhhhhhhhhhhhhhhhh  jjjjjjj",
"jjjjjjjjjjjj  $$$$   hhhhhhhhhhhhhhhhhhhhhhhhhhhhhhhhhhhhhhhhhhhhhhhhhhhhhhhhhhhhhhhhhhhhhh  jjjjjjj",
"jjjjjjjjjjjj  $$$$   hhhhhhhhhhhhhhhhhhhhhhhhhhhhhhhhhhhhhhhhhhhhhhhhhhhhhhhhhhhhhhhhhhhhhh  jjjjjjj",
"jjjjjjjjjjjj  $$$$   hhhhhhhhhhhhhhhhhhhhhhhhhhhhhhhhhhhhhhhhhhhhhhhhhhhhhhhhhhhhhhhhhhhhhh  jjjjjjj",
"jjjjjjjjjjjj  $$$$   hhhhhhhhhhhhhhhhhhhhhhhhhhhhhhhhhhhhhhhhhhhhhhhhhhhhhhhhhhhhhhhhhhhhhh  jjjjjjj",
"jjjjjjjjjjjj  $$$$   hhhhhhhhhhhhhhhhhhhhhhhhhhhhhhhhhhhhhhhhhhhhhhhhhhhhhhhhhhhhhhhhhhhhhh  jjjjjjj",
"jjjjjjjjjjjj  $$$$   hhhhhhhhhhhhhhhhhhhhhhhhhhhhhhhhhhhhhhhhhhhhhhhhhhhhhhhhhhhhhhhhhhhhhh  jjjjjjj",
"jjjjjjjjjjjj  $$$$   hhhhhhhhhhhhhhhhhhhhhhhhhhhhhhhhhhhhhhhhhhhhhhhhhhhhhhhhhhhhhhhhhhhhhh  jjjjjjj",
"jjjjjjjjjjjj  $$$$   hhhhhhhhhhhhhhhhhhhhhhhhhhhhhhhhhhhhhhhhhhhhhhhhhhhhhhhhhhhhhhhhhhhhhh  jjjjjjj",
"jjjjjjjjjjjj  $$$$   hhhhhhhhhhhhhhhhhhhhhhhhhhhhhhhhhhhhhhhhhhhhhhhhhhhhhhhhhhhhhhhhhhhhhh  jjjjjjj",
"jjjjjjjjjjjj  $$$$   hhhhhhhhhhhhhhhhhhhhhhhhhhhhhhhhhhhhhhhhhhhhhhhhhhhhhhhhhhhhhhhhhhhhhh  jjjjjjj",
"jjjjjjjjjjjj  $$$$   hhhhhhhhhhhhhhhhhhhhhhhhhhhhhhhhhhhhhhhhhhhhhhhhhhhhhhhhhhhhhhhhhhhhhh  jjjjjjj",
"jjjjjjjjjjjj  $$$$   hhhhhhhhhhhhhhhhhhhhhhhhhhhhhhhhhhhhhhhhhhhhhhhhhhhhhhhhhhhhhhhhhhhhhh  jjjjjjj",
"jjjjjjjjjjjj  $$$$   hhhhhhhhhhhhhhhhhhhhhhhhhhhhhhhhhhhhhhhhhhhhhhhhhhhhhhhhhhhhhhhhhhhhhh  jjjjjjj",
"jjjjjjjjjjjj  $$$$   hhhhhhhhhhhhhhhhhhhhhhhhhhhhhhhhhhhhhhhhhhhhhhhhhhhhhhhhhhhhhhhhhhhhhh  jjjjjjj",
"jjjjjjjjjjjj  $$$$   hhhhhhhhhhhhhhhhhhhhhhhhhhhhhhhhhhhhhhhhhhhhhhhhhhhhhhhhhhhhhhhhhhhhhh  jjjjjjj",
"jjjjjjjjjjjj  $$$$   hhhhhhhhhhhhhhhhhhhhhhhhhhhhhhhhhhhhhhhhhhhhhhhhhhhhhhhhhhhhhhhhhhhhhh  jjjjjjj",
"jjjjjjjjjjjj  $$$$   hhhhhhhhhhhhhhhhhhhhhhhhhhhhhhhhhhhhhhhhhhhhhhhhhhhhhhhhhhhhhhhhhhhhhh  jjjjjjj",
"jjjjjjjjjjjj  $$$$   hhhhhhhhhhhhhhhhhhhhhhhhhhhhhhhhhhhhhhhhhhhhhhhhhhhhhhhhhhhhhhhhhhhhhh  jjjjjjj",
"jjjjjjjjjjjj  $$$$   hhhhhhhhhhhhhhhhhhhhhhhhhhhhhhhhhhhhhhhhhhhhhhhhhhhhhhhhhhhhhhhhhhhhhh  jjjjjjj",
"jjjjjjjjjjjj  $$$$   hhhhhhhhhhhhhhhhhhhhhhhhhhhhhhhhhhhhhhhhhhhhhhhhhhhhhhhhhhhhhhhhhhhhhh  jjjjjjj",
"jjjjjjjjjjjj  $$$$   hhhhhhhhhhhhhhhhhhhhhhhhhhhhhhhhhhhhhhhhhhhhhhhhhhhhhhhhhhhhhhhhhhhhhh  jjjjjjj",
"jjjjjjjjjjjj  $$$$   hhhhhhhhhhhhhhhhhhhhhhhhhhhhhhhhhhhhhhhhhhhhhhhhhhhhhhhhhhhhhhhhhhhhhh  jjjjjjj",
"jjjjjjjjjjjj  $$$$   hhhhhhhhhhhhhhhhhhhhhhhhhhhhhhhhhhhhhhhhhhhhhhhhhhhhhhhhhhhhhhhhhhhhhh  jjjjjjj",
"jjjjjjjjjjjj  $$$$   hhhhhhhhhhhhhhhhhhhhhhhhhhhhhhhhhhhhhhhhhhhhhhhhhhhhhhhhhhhhhhhhhhhhhh  jjjjjjj",
"jjjjjjjjjjjj  $$$$   hhhhhhhhhhhhhhhhhhhhhhhhhhhhhhhhhhhhhhhhhhhhhhhhhhhhhhhhhhhhhhhhhhhhhh  jjjjjjj",
"jjjjjjjjjjjj  $$$$   hhhhhhhhhhhhhhhhhhhhhhhhhhhhhhhhhhhhhhhhhhhhhhhhhhhhhhhhhhhhhhhhhhhhhh  jjjjjjj",
"jjjjjjjjjjjj  $$$$   hhhhhhhhhhhhhhhhhhhhhhhhhhhhhhhhhhhhhhhhhhhhhhhhhhhhhhhhhhhhhhhhhhhhhh  jjjjjjj",
"jjjjjjjjjjjj  $$$$   hhhhhhhhhhhhhhhhhhhhhhhhhhhhhhhhhhhhhhhhhhhhhhhhhhhhhhhhhhhhhhhhhhhhhh  jjjjjjj",
"jjjjjjjjjjjj  $$$$   hhhhhhhhhhhhhhhhhhhhhhhhhhhhhhhhhhhhhhhhhhhhhhhhhhhhhhhhhhhhhhhhhhhhhh  jjjjjjj",
"jjjjjjjjjjjj  $$$$   hhhhhhhhhhhhhhhhhhhhhhhhhhhhhhhhhhhhhhhhhhhhhhhhhhhhhhhhhhhhhhhhhhhhhh  jjjjjjj",
"jjjjjjjjjjjj  $$$$   hhhhhhhhhhhhhhhhhhhhhhhhhhhhhhhhhhhhhhhhhhhhhhhhhhhhhhhhhhhhhhhhhhhhhh  jjjjjjj",
"jjjjjjjjjjjj  $$$$   hhhhhhhhhhhhhhhhhhhhhhhhhhhhhhhhhhhhhhhhhhhhhhhhhhhhhhhhhhhhhhhhhhhhhh  jjjjjjj",
"jjjjjjjjjjjj  $$$$   hhhhhhhhhhhhhhhhhhhhhhhhhhhhhhhhhhhhhhhhhhhhhhhhhhhhhhhhhhhhhhhhhhhhhh  jjjjjjj",
"jjjjjjjjjjjj  $$$$   hhhhhhhhhhhhhhhhhhhhhhhhhhhhhhhhhhhhhhhhhhhhhhhhhhhhhhhhhhhhhhhhhhhhhh  jjjjjjj",
"jjjjjjjjjjjj  $$$$   hhhhhhhhhhhhhhhhhhhhhhhhhhhhhhhhhhhhhhhhhhhhhhhhhhhhhhhhhhhhhhhhhhhhhh  jjjjjjj",
"jjjjjjjjjjjj  $$$$   hhhhhhhhhhhhhhhhhhhhhhhhhhhhhhhhhhhhhhhhhhhhhhhhhhhhhhhhhhhhhhhhhhhhhh  jjjjjjj",
"jjjjjjjjjjjj  $$$$   hhhhhhhhhhhhhhhhhhhhhhhhhhhhhhhhhhhhhhhhhhhhhhhhhhhhhhhhhhhhhhhhhhhhhh  jjjjjjj",
"jjjjjjjjjjjj  $$$$   hhhhhhhhhhhhhhhhhhhhhhhhhhhhhhhhhhhhhhhhhhhhhhhhhhhhhhhhhhhhhhhhhhhhhh  jjjjjjj",
"jjjjjjjjjjjj  $$$$   hhhhhhhhhhhhhhhhhhhhhhhhhhhhhhhhhhhhhhhhhhhhhhhhhhhhhhhhhhhhhhhhhhhhhh  jjjjjjj",
"jjjjjjjjjjjj  $$$$   hhhhhhhhhhhhhhhhhhhhhhhhhhhhhhhhhhhhhhhhhhhhhhhhhhhhhhhhhhhhhhhhhhhhhh  jjjjjjj",
"jjjjjjjjjjjj  $$$$   hhhhhhhhhhhhhhhhhhhhhhhhhhhhhhhhhhhhhhhhhhhhhhhhhhhhhhhhhhhhhhhhhhhhhh  jjjjjjj",
"jjjjjjjjjjjj  $$$$   hhhhhhhhhhhhhhhhhhhhhhhhhhhhhhhhhhhhhhhhhhhhhhhhhhhhhhhhhhhhhhhhhhhhhh  jjjjjjj",
"jjjjjjjjjjjj  $$$$   hhhhhhhhhhhhhhhhhhhhhhhhhhhhhhhhhhhhhhhhhhhhhhhhhhhhhhhhhhhhhhhhhhhhhh  jjjjjjj",
"jjjjjjjjjjjj  $$$$   hhhhhhhhhhhhhhhhhhhhhhhhhhhhhhhhhhhhhhhhhhhhhhhhhhhhhhhhhhhhhhhhhhhhhh  jjjjjjj",
"jjjjjjjjj>>&  $$$$   hhhhhhhhhhhhhhhhhhhhhhhhhhhhhhhhhhhhhhhhhhhhhhhhhhhhhhhhhhhhhhhhhhhhhh  jjjjjjj",
"jjjjjjjjj;;*  $$$$   hhhhhhhhhhhhhhhhhhhhhhhhhhhhhhhhhhhhhhhhhhhhhhhhhhhhhhhhhhhhhhhhhhhhhh  jjjjjjj",
"jjjjjjjjj;;*  $$$$   hhhhhhhhhhhhhhhhhhhhhhhhhhhhhhhhhhhhhhhhhhhhhhhhhhhhhhhhhhhhhhhhhhhhhh  jjjjjjj",
"jj:;;jjjj;;*  ;;$$   hhhhhhhhhhhhhhhhhhhhhhhhhhhhhhhhhhhhhhhhhhhhhhhhhhhhhhhhhhhhhhhhhhhhhh  jjjjjjj",
"jj:;;jjjj;;*  ;;$$   hhhhhhhhhhhhhhhhhhhhhhhhhhhhhhhhhhhhhhhhhhhhhhhhhhhhhhhhhhhhhhhhhhhhhh  jjjjjjj",
"jj:;;;;jj;;*  ;;$$   ;;;;hhhhhhhhhhhhhhhhhhhhhhhhhhhhhhhhhhhhhhhhhhhhhhhhhh;;hhhhhhhhhhhhhh  ;;;;;jj",
"jj:;;;;jj;;*  ;;$$   ;;;;hhhhhhhhhhhhhhhhhhhhhhhhhhhhhhhhhhhhhhhhhhhhhhhhhh;;hhhhhhhhhhhhhh  ;;;;;jj",
"jjjjj;;jj;;*  ;;$$;;;;;hhhhhhhhhhhhhhhhhhhhhhhhhhh;;hhhhhhhhhhhhhhhhhhhhhhh;;hhhhhhhhhhhhhh;;;;jjjjj",
"jjjjj;;jj;;*  ;;$$;;;;;hhhhhhhhhhhhhhhhhhhhhhhhhhh;;hhhhhhhhhhhhhhhhhhhhhhh;;hhhhhhhhhhhhhh;;;;jjjjj",
"jjjjj;;jj;;*  ;;$$;;;77hheedhhhheehhpeehhhheethhhh;;eeehhhhhhueehheehhhhhee;;hhhhhhheeghhee;;;;=jjjj",
"jjjjj;;;;;;*  ;;$$;;;hhhh;;ihhhh;;hh0;;hhhh;;3hhhh;;;;;hhhhhh5;;hh;;hhhhh;;;;hhhhhhh;;fhh;;;;;;;;;jj",
"jjjjj;;;;;;*  ;;$$;;;hhhh;;ihhhh;;hh0;;hhhh;;3hhhh;;;;;hhhhhh5;;hh;;hhhhh;;;;hhhhhhh;;fhh;;;;;;;;;jj",
"jjjjjjj;;;;;;;;;;;   hh;;;;ihh;;;;hh0;;hh;;;;3hhhhhh;;;;;;;hh5;;;;;;hhhhh;;hh;;;;;;;;;;;;;;;;jj;;;jj",
"jjjjjjj;;;;;;;;;;;   hh;;;;ihh;;;;hh0;;hh;;;;3hhhhhh;;;;;;;hh5;;;;;;hhhhh;;hh;;;;;;;;;;;;;;;;jj;;;jj",
"jjjjjjj;;;;;;;;;;;   ;;;;hh4;;;;hhhh0;;;;;;hhhhh;;hh;;;hh;;;;;;;;;;;hhw;;;;hh;;;;;;;hh,;;hh;;;;;;;jj",
"jjjjjjj;;;;;;;;;;;   ;;;;hh4;;;;hhhh0;;;;;;hhhhh;;hh;;;hh;;;;;;;;;;;hhw;;;;hh;;;;;;;hh,;;hh;;;;;;;jj",
"jj:;;jj;;;;;;;;;;;   ;;hh;;;;;;;;;;;;;;;;;;hha;;;;;;;;;hh;;;;yhh;;;;hhw;;;;;;;;;;;;;hh,;;hh;;;;;;;;;",
"jj:;;jj;;;;;;;;;;;   ;;hh;;;;;;;;;;;;;;;;;;hha;;;;;;;;;hh;;;;yhh;;;;hhw;;;;;;;;;;;;;hh,;;hh;;;;;;;;;",
"jj:;;jj;;;;;;;;;;;   ;;hh;;;;;;;;;;;;;;;;;;hha;;;;;;;;;hh;;;;yhh;;;;hhw;;;;;;;;;;;;;hh,;;hh;;;;;;;;;",
";;;;;;;;;;;;;;;;;;   ;;hh;;ihh;;;;;;;;;;;;;;;;;;hh;;;;;hh;;;;yhh;;;;;;;;;;;;;;;;;;;;;;;;;hh;;;;;;;jj",
";;;;;;;;;;;;;;;;;;   ;;hh;;ihh;;;;;;;;;;;;;;;;;;hh;;;;;hh;;;;yhh;;;;;;;;;;;;;;;;;;;;;;;;;hh;;;;;;;jj",
";;;;;jj;;;;;;;;;;;;;;;;;;;;;;;;;;;;;;;;;;hh;;;;;hh;;;;;;;;;;;;;;;;hh;;8hh;;;;;;;;;;;;;;;;;;;;;;jjjjj",
";;;;;jj;;;;;;;;;;;;;;;;;;;;;;;;;;;;;;;;;;hh;;;;;hh;;;;;;;;;;;;;;;;hh;;8hh;;;;;;;;;;;;;;;;;;;;;;jjjjj",
"jj:;;;;jj;;;;;;;;;;;;hh;;;;;;;hh;;;;9hh;;hh;;;;;;;;;;;;;;;;;;;;;hh;;;;;;;;;;;;;;;;;;;;;;;;;;;jj;;;;;",
"jj:;;;;jj;;;;;;;;;;;;hh;;;;;;;hh;;;;9hh;;hh;;;;;;;;;;;;;;;;;;;;;hh;;;;;;;;;;;;;;;;;;;;;;;;;;;jj;;;;;",
"jjjjj;;::;;;;;;;;;;;;66;;;;qtt66;;;;266;;66;;;;;;;;;;;;;;;;;;;;;66;;;;;;;;;;;;;;;;;;;;;;;;;;;::-;;jj",
"jjjjj;;;;;;;;;;;;;;;;;;;;;;ihh;;;;;;;;;;;;;;;;;;;;;;;;;;;;;;;;;;;;;;;;;;;;;;;;;;;;;;;;;;;;;;;;;;;;jj",
"jjjjj;;;;;;;;;;;;;;;;;;;;;;ihh;;;;;;;;;;;;;;;;;;;;;;;;;;;;;;;;;;;;;;;;;;;;;;;;;;;;;;;;;;;;;;;;;;;;jj",
"jjjjjjjjj;;;;;;;;;;;;;;;;;;;;;;;;;;;;;;;;;;;;;;;;;;;;;;;;;;;;;;;;;;;;;;;;;;;;;;;;;;;;;;;;;;;;jjjjjjj",
"jjjjjjjjj;;;;;;;;;;;;;;;;;;;;;;;;;;;;;;;;;;;;;;;;;;;;;;;;;;;;;;;;;;;;;;;;;;;;;;;;;;;;;;;;;;;;jjjjjjj"
};
