/* XPM */
static char *result[] = {
/* columns rows colors chars-per-pixel */
"100 100 48 1 ",
"  c black",
". c #060606",
"X c #090909",
"o c gray4",
"O c gray6",
"+ c #0B1D05",
"@ c #111111",
"# c #151515",
"$ c gray9",
"% c #191919",
"& c #1D1D1D",
"* c gray15",
"= c #313131",
"- c #235D12",
"; c #246012",
": c #2C661B",
"> c #2C7416",
", c #2E7A17",
"< c #2E7B17",
"1 c #2E7A18",
"2 c #337C1C",
"3 c #337C1D",
"4 c #357D20",
"5 c #377E21",
"6 c #505050",
"7 c #535353",
"8 c gray43",
"9 c gray44",
"0 c #43832F",
"q c #4C873A",
"w c #4D873C",
"e c #548A43",
"r c #649156",
"t c #6C9460",
"y c #75986A",
"u c #7D9C74",
"i c gray54",
"p c #8DA386",
"a c #8EA388",
"s c #94A68E",
"d c #95A690",
"f c #9EAA9B",
"g c #A2A2A2",
"h c #AAAAAA",
"j c #AAAFA9",
"k c #AEB1AD",
"l c gray70",
"z c None",
/* pixels */
"zzzzzzzzzzzzzzzzzzzzzzzzzzzzzz                                             zzzzzzzzzzzzzzzzzzzzzzzzz",
"zzzzzzzzzzzzzzzzzzzzzzzzzzzzzz                                             zzzzzzzzzzzzzzzzzzzzzzzzz",
"zzzzzzzzzzzzzzzzzzzzzzzzzzzzzzoooo  $======================================zzzzzzzzzzzzzzzzzzzzzzzzz",
"zzzzzzzzzzzzzzzzzzzzzzzzzzz   ****  7llllllllllllllllllllllllllllllllllllll  zzzzzzzzzzzzzzzzzzzzzzz",
"zzzzzzzzzzzzzzzzzzzzzzzzzzz   ****  7llllllllllllllllllllllllllllllllllllll  zzzzzzzzzzzzzzzzzzzzzzz",
"zzzzzzzzzzzzzzzzzzzzzzzzz  &****  lllllllllllllllllllllllllllllllllllllllllll   zzzzzzzzzzzzzzzzzzzz",
"zzzzzzzzzzzzzzzzzzzzzzzzz  &****  lllllllllllllllllllllllllllllllllllllllllll   zzzzzzzzzzzzzzzzzzzz",
"zzzzzzzzzzzzzzzzzzzzz    *****  lllllllllllllllllllllllllllllllllllllllllllllllg    zzzzzzzzzzzzzzzz",
"zzzzzzzzzzzzzzzzzzzzz    *****  lllllllllllllllllllllllllllllllllllllllllllllllg    zzzzzzzzzzzzzzzz",
"zzzzzzzzzzzzzzzzzzzzz@@@@**%##66lllllllllllllllllllllllllllllllllllllllllllllllh6666zzzzzzzzzzzzzzzz",
"zzzzzzzzzzzzzzzzzz   ******X  llllllllllllllllllllllllllllllllllllllllllllllllllllll  zzzzzzzzzzzzzz",
"zzzzzzzzzzzzzzzzzz   ******X  llllllllllllllllllllllllllllllllllllllllllllllllllllll  zzzzzzzzzzzzzz",
"zzzzzzzzzzzzzzzzzz   **    illllllllllllllllllllllllllllllllllllllllllllllllllllllll  zzzzzzzzzzzzzz",
"zzzzzzzzzzzzzzzzzz   **    illllllllllllllllllllllllllllllllllllllllllllllllllllllll  zzzzzzzzzzzzzz",
"zzzzzzzzzzzzzz    *****  lllllllllllllllllllllllllllllllllllllllllllllllllllllllllllll.    zzzzzzzzz",
"zzzzzzzzzzzzzz    *****  lllllllllllllllllllllllllllllllllllllllllllllllllllllllllllll.    zzzzzzzzz",
"zzzzzzzzzzzz  $$$$***OO88lllllllllllllllllllllllllllllllllllllllllllllllllllllllllllll98888  zzzzzzz",
"zzzzzzzzzzzz  *******  llllllllllllllllllllllllllllllllllllllllllllllllllllllllllllllllllll  zzzzzzz",
"zzzzzzzzzzzz  *******  llllllllllllllllllllllllllllllllllllllllllllllllllllllllllllllllllll  zzzzzzz",
"zzzzzzzzzzzz  ****     llllllllllllllllllllllllllllllllllllllllllllllllllllllllllllllllllll  zzzzzzz",
"zzzzzzzzzzzz  ****     llllllllllllllllllllllllllllllllllllllllllllllllllllllllllllllllllll  zzzzzzz",
"zzzzzzzzzzzz  ****   llllllllllllllllllllllllllllllllllllllllllllllllllllllllllllllllllllll  zzzzzzz",
"zzzzzzzzzzzz  ****   llllllllllllllllllllllllllllllllllllllllllllllllllllllllllllllllllllll  zzzzzzz",
"zzzzzzzzzzzz  ****   llllllllllllllllllllllllllllllllllllllllllllllllllllllllllllllllllllll  zzzzzzz",
"zzzzzzzzzzzz  ****   llllllllllllllllllllllllllllllllllllllllllllllllllllllllllllllllllllll  zzzzzzz",
"zzzzzzzzzzzz  ****   llllllllllllllllllllllllllllllllllllllllllllllllllllllllllllllllllllll  zzzzzzz",
"zzzzzzzzzzzz  ****   llllllllllllllllllllllllllllllllllllllllllllllllllllllllllllllllllllll  zzzzzzz",
"zzzzzzzzzzzz  ****   llllllllllllllllllllllllllllllllllllllllllllllllllllllllllllllllllllll  zzzzzzz",
"zzzzzzzzzzzz  ****   llllllllllllllllllllllllllllllllllllllllllllllllllllllllllllllllllllll  zzzzzzz",
"zzzzzzzzzzzz  ****   llllllllllllllllllllllllllllllllllllllllllllllllllllllllllllllllllllll  zzzzzzz",
"zzzzzzzzzzzz  ****   llllllllllllllllllllllllllllllllllllllllllllllllllllllllllllllllllllll  zzzzzzz",
"zzzzzzzzzzzz  ****   llllllllllllllllllllllllllllllllllllllllllllllllllllllllllllllllllllll  zzzzzzz",
"zzzzzzzzzzzz  ****   llllllllllllllllllllllllllllllllllllllllllllllllllllllllllllllllllllll  zzzzzzz",
"zzzzzzzzzzzz  ****   llllllllllllllllllllllllllllllllllllllllllllllllllllllllllllllllllllll  zzzzzzz",
"zzzzzzzzzzzz  ****   llllllllllllllllllllllllllllllllllllllllllllllllllllllllllllllllllllll  zzzzzzz",
"zzzzzzzzzzzz  ****   llllllllllllllllllllllllllllllllllllllllllllllllllllllllllllllllllllll  zzzzzzz",
"zzzzzzzzzzzz  ****   llllllllllllllllllllllllllllllllllllllllllllllllllllllllllllllllllllll  zzzzzzz",
"zzzzzzzzzzzz  ****   llllllllllllllllllllllllllllllllllllllllllllllllllllllllllllllllllllll  zzzzzzz",
"zzzzzzzzzzzz  ****   llllllllllllllllllllllllllllllllllllllllllllllllllllllllllllllllllllll  zzzzzzz",
"zzzzzzzzzzzz  ****   llllllllllllllllllllllllllllllllllllllllllllllllllllllllllllllllllllll  zzzzzzz",
"zzzzzzzzzzzz  ****   llllllllllllllllllllllllllllllllllllllllllllllllllllllllllllllllllllll  zzzzzzz",
"zzzzzzzzzzzz  ****   llllllllllllllllllllllllllllllllllllllllllllllllllllllllllllllllllllll  zzzzzzz",
"zzzzzzzzzzzz  ****   llllllllllllllllllllllllllllllllllllllllllllllllllllllllllllllllllllll  zzzzzzz",
"zzzzzzzzzzzz  ****   llllllllllllllllllllllllllllllllllllllllllllllllllllllllllllllllllllll  zzzzzzz",
"zzzzzzzzzzzz  ****   llllllllllllllllllllllllllllllllllllllllllllllllllllllllllllllllllllll  zzzzzzz",
"zzzzzzzzzzzz  ****   llllllllllllllllllllllllllllllllllllllllllllllllllllllllllllllllllllll  zzzzzzz",
"zzzzzzzzzzzz  ****   llllllllllllllllllllllllllllllllllllllllllllllllllllllllllllllllllllll  zzzzzzz",
"zzzzzzzzzzzz  ****   llllllllllllllllllllllllllllllllllllllllllllllllllllllllllllllllllllll  zzzzzzz",
"zzzzzzzzzzzz  ****   llllllllllllllllllllllllllllllllllllllllllllllllllllllllllllllllllllll  zzzzzzz",
"zzzzzzzzzzzz  ****   llllllllllllllllllllllllllllllllllllllllllllllllllllllllllllllllllllll  zzzzzzz",
"zzzzzzzzzzzz  ****   llllllllllllllllllllllllllllllllllllllllllllllllllllllllllllllllllllll  zzzzzzz",
"zzzzzzzzzzzz  ****   llllllllllllllllllllllllllllllllllllllllllllllllllllllllllllllllllllll  zzzzzzz",
"zzzzzzzzzzzz  ****   llllllllllllllllllllllllllllllllllllllllllllllllllllllllllllllllllllll  zzzzzzz",
"zzzzzzzzzzzz  ****   llllllllllllllllllllllllllllllllllllllllllllllllllllllllllllllllllllll  zzzzzzz",
"zzzzzzzzzzzz  ****   llllllllllllllllllllllllllllllllllllllllllllllllllllllllllllllllllllll  zzzzzzz",
"zzzzzzzzzzzz  ****   llllllllllllllllllllllllllllllllllllllllllllllllllllllllllllllllllllll  zzzzzzz",
"zzzzzzzzzzzz  ****   llllllllllllllllllllllllllllllllllllllllllllllllllllllllllllllllllllll  zzzzzzz",
"zzzzzzzzzzzz  ****   llllllllllllllllllllllllllllllllllllllllllllllllllllllllllllllllllllll  zzzzzzz",
"zzzzzzzzzzzz  ****   llllllllllllllllllllllllllllllllllllllllllllllllllllllllllllllllllllll  zzzzzzz",
"zzzzzzzzzzzz  ****   llllllllllllllllllllllllllllllllllllllllllllllllllllllllllllllllllllll  zzzzzzz",
"zzzzzzzzzzzz  ****   llllllllllllllllllllllllllllllllllllllllllllllllllllllllllllllllllllll  zzzzzzz",
"zzzzzzzzzzzz  ****   llllllllllllllllllllllllllllllllllllllllllllllllllllllllllllllllllllll  zzzzzzz",
"zzzzzzzzzzzz  ****   llllllllllllllllllllllllllllllllllllllllllllllllllllllllllllllllllllll  zzzzzzz",
"zzzzzzzzzzzz  ****   llllllllllllllllllllllllllllllllllllllllllllllllllllllllllllllllllllll  zzzzzzz",
"zzzzzzzzzzzz  ****   llllllllllllllllllllllllllllllllllllllllllllllllllllllllllllllllllllll  zzzzzzz",
"zzzzzzzzzzzz  ****   llllllllllllllllllllllllllllllllllllllllllllllllllllllllllllllllllllll  zzzzzzz",
"zzzzzzzzzzzz  ****   llllllllllllllllllllllllllllllllllllllllllllllllllllllllllllllllllllll  zzzzzzz",
"zzzzzzzzzzzz  ****   llllllllllllllllllllllllllllllllllllllllllllllllllllllllllllllllllllll  zzzzzzz",
"zzzzzzzzzzzz  ****   llllllllllllllllllllllllllllllllllllllllllllllllllllllllllllllllllllll  zzzzzzz",
"zzzzzzzzzzzz  ****   llllllllllllllllllllllllllllllllllllllllllllllllllllllllllllllllllllll  zzzzzzz",
"zzzzzzzzz,,;  ****   llllllllllllllllllllllllllllllllllllllllllllllllllllllllllllllllllllll  zzzzzzz",
"zzzzzzzzz,,;  ****   llllllllllllllllllllllllllllllllllllllllllllllllllllllllllllllllllllll  zzzzzzz",
"zz<,,zzzz,,;  ,,**   llllllllllllllllllllllllllllllllllllllllllllllllllllllllllllllllllllll  zzzzzzz",
"zz<,,zzzz,,;  ,,**   llllllllllllllllllllllllllllllllllllllllllllllllllllllllllllllllllllll  zzzzzzz",
"zz<,,11zz,,;  ,,**   rrrrllllllllllllllllllllllllllllllllllllllllllllllllllrrllllllllllllll  11111zz",
"zz<,,,,zz,,;  ,,**   ,,,,llllllllllllllllllllllllllllllllllllllllllllllllll,,llllllllllllll  ,,,,,zz",
"zz<,,,,zz,,;  ,,**   ,,,,llllllllllllllllllllllllllllllllllllllllllllllllll,,llllllllllllll  ,,,,,zz",
"zzzzz,,zz,,;  ,,**,,,,,lllllllllllllllllllllllllll,,lllllllllllllllllllllll,,llllllllllllll,,,,zzzzz",
"zzzzz,,zz,,;  ,,**,,,,,lllllllllllllllllllllllllll,,lllllllllllllllllllllll,,llllllllllllll,,,,zzzzz",
"zzzzz,,,,,,;  ,,**,,,llll,,dllll,,lly,,llll,,0llll,,,,,lllllle,,ll,,lllll,,,,lllllll,,kll,,,,,,,,,zz",
"zzzzz,,,,,,;  ,,**,,,llll,,dllll,,lly,,llll,,0llll,,,,,lllllle,,ll,,lllll,,,,lllllll,,kll,,,,,,,,,zz",
"zzzzzzz,,,,>--,,::+++llww,,dllww,,lly,,llww,,0llllss,,,wwwwlle,,ww,,lllll,,sswwwwwww,,qww,,,,zz,,,zz",
"zzzzzzz,,,,,,,,,,,   ll,,,,dll,,,,lly,,ll,,,,0llllll,,,,,,,lle,,,,,,lllll,,ll,,,,,,,,,,,,,,,,zz,,,zz",
"zzzzzzz,,,,,,,,,,,   ll,,,,dll,,,,lly,,ll,,,,0llllll,,,,,,,lle,,,,,,lllll,,ll,,,,,,,,,,,,,,,,zz,,,zz",
"zzzzzzz,,,,,,,,,,,   ,,,,llq,,,,lllly,,,,,,lllll,,ll,,,ll,,,,,,,,,,,llu,,,,ll,,,,,,,ll2,,ll,,,,,,,zz",
"zzzzzzz,,,,,,,,,,,   ,,,,llq,,,,lllly,,,,,,lllll,,ll,,,ll,,,,,,,,,,,llu,,,,ll,,,,,,,ll2,,ll,,,,,,,zz",
"zz<,,zz,,,,,,,,,,,   ,,ll,,,,,,,,,,,,,,,,,,llf,,,,,,,,,ll,,,,pll,,,,llu,,,,,,,,,,,,,ll2,,ll,,,,,,,,,",
"zz<,,zz,,,,,,,,,,,   ,,ll,,,,,,,,,,,,,,,,,,llf,,,,,,,,,ll,,,,pll,,,,llu,,,,,,,,,,,,,ll2,,ll,,,,,,,,,",
",,,,,,,,,,,,,,,,,,   ,,ll,,ajj,,,,,,,,,,,,,554,,jj,,,,,ll,,,,pll,,,,553,,,,,,,,,,,,,55,,,ll,,,,,,,zz",
",,,,,,,,,,,,,,,,,,   ,,ll,,dll,,,,,,,,,,,,,,,,,,ll,,,,,ll,,,,pll,,,,,,,,,,,,,,,,,,,,,,,,,ll,,,,,,,zz",
",,,,,,,,,,,,,,,,,,   ,,ll,,dll,,,,,,,,,,,,,,,,,,ll,,,,,ll,,,,pll,,,,,,,,,,,,,,,,,,,,,,,,,ll,,,,,,,zz",
",,,,,zz,,,,,,,,,,,,,,,,,,,,,,,,,,,,,,,,,,ll,,,,,ll,,,,,,,,,,,,,,,,ll,,rll,,,,,,,,,,,,,,,,,,,,,,zzzzz",
",,,,,zz,,,,,,,,,,,,,,,,,,,,,,,,,,,,,,,,,,ll,,,,,ll,,,,,,,,,,,,,,,,ll,,rll,,,,,,,,,,,,,,,,,,,,,,zzzzz",
"zz<,,,,zz,,,,,,,,,,,,ll,,,,,,,ll,,,,tll,,ll,,,,,,,,,,,,,,,,,,,,,ll,,,,,,,,,,,,,,,,,,,,,,,,,,,zz,,,,,",
"zz<,,,,zz,,,,,,,,,,,,ll,,,,,,,ll,,,,tll,,ll,,,,,,,,,,,,,,,,,,,,,ll,,,,,,,,,,,,,,,,,,,,,,,,,,,zz,,,,,",
"zzzzz,,,,,,,,,,,,,,,,,,,,,,dll,,,,,,,,,,,,,,,,,,,,,,,,,,,,,,,,,,,,,,,,,,,,,,,,,,,,,,,,,,,,,,,,,,,,zz",
"zzzzz,,,,,,,,,,,,,,,,,,,,,,dll,,,,,,,,,,,,,,,,,,,,,,,,,,,,,,,,,,,,,,,,,,,,,,,,,,,,,,,,,,,,,,,,,,,,zz",
"zzzzz,,,,,,,,,,,,,,,,,,,,,,dll,,,,,,,,,,,,,,,,,,,,,,,,,,,,,,,,,,,,,,,,,,,,,,,,,,,,,,,,,,,,,,,,,,,,zz",
"zzzzzzzzz,,,,,,,,,,,,,,,,,,,,,,,,,,,,,,,,,,,,,,,,,,,,,,,,,,,,,,,,,,,,,,,,,,,,,,,,,,,,,,,,,,,,zzzzzzz",
"zzzzzzzzz,,,,,,,,,,,,,,,,,,,,,,,,,,,,,,,,,,,,,,,,,,,,,,,,,,,,,,,,,,,,,,,,,,,,,,,,,,,,,,,,,,,,zzzzzzz"
};
