/* XPM */
static char *_4305_2346f30f276b265f08a36f499fbf1acdd116ea306868f8199c5f2eec75e21c38[] = {
/* columns rows colors chars-per-pixel */
"32 32 17 1 ",
"  c #302C2E",
". c #6A383D",
"X c #39314B",
"o c #2E3C6C",
"O c #5E3643",
"+ c #3C5956",
"@ c #397B44",
"# c #394778",
"$ c #7A444A",
"% c #874950",
"& c #A05B53",
"* c #DBA974",
"= c #28608A",
"- c #DCB58C",
"; c #E7B785",
": c #F4CCA1",
"> c None",
/* pixels */
">>>>>>>>>>>>>>>>>>>>>>>>>>>>>>>>",
">>>>>>>>>>>>>>>>>>>>>>>>>>>>>>>>",
">>>>>>>>>>>>>>>>>>>>>>>>>>>>>>>>",
">>>>>>>>>>>>>>>>>>>>>>>>>>>>>>>>",
">>>>>>>>>>>>>>>>>>>>>>>>>>>>>>>>",
">>>>>>>>>>>>>>>>>>>>>>>>>>>>>>>>",
">>>>>>>>>>>>>>>>>>>>>>>>>>>>>>>>",
">>>>>>>>>>>>>>>>>>>>>>>>>>>>>>>>",
">>>>>>>>>>>>   >>>>>>>>>>>>>>>>>",
">>>>>>>>>>> &&&   >>>>>>>>>>>>>>",
">>>>>>>>>> &&&&&&&  >>>>>>>>>>>>",
">>>>>>>>>> &&$$$$$$$ >>>>>>>>>>>",
">>>>>>>>>> &;;;;;*$$ >>>>>>>>>>>",
">>>>>>>>>>> ::::::$$ >>>>>>>>>>>",
">>>>>>>>>>> :#:#::&; >>>>>>>>>>>",
">>>>>>>>>>> :o:o:&&* >>>>>>>>>>>",
">>>>>>>>>>> ::-::&&% >>>>>>>>>>>",
">>>>>>>>>>> &&&&&&%$ >>>>>>>>>>>",
">>>>>>>>>>> $$$$$$$  >>>>>>>>>>>",
">>>>>>>>>>>> ....     >>>>>>>>>>",
">>>>>>>>>>> @ *  @ = @ >>>>>>>>>",
">>>>>>>>>>>  # #= X= @ >>>>>>>>>",
">>>>>>>>>>>  =#=# *X + >>>>>>>>>",
">>>>>>>>>>>  #=## :* + >>>>>>>>>",
">>>>>>>>>> * =#= *:; + >>>>>>>>>",
">>>>>>>>>> * #=# ;*;  >>>>>>>>>>",
">>>>>>>>>>>  XXXX    >>>>>>>>>>>",
">>>>>>>>>>>> OOOOOO >>>>>>>>>>>>",
">>>>>>>>>>>> OO OOO >>>>>>>>>>>>",
">>>>>>>>>>>> $O O$O >>>>>>>>>>>>",
">>>>>>>>>>> $$O $$$ >>>>>>>>>>>>",
">>>>>>>>>>> OOO OOO >>>>>>>>>>>>"
};
