/* XPM */
static char *result[] = {
/* columns rows colors chars-per-pixel */
"30 30 99 2 ",
"   c #E0BA00",
".  c #C4A92B",
"X  c #F1D500",
"o  c #31BB9D",
"O  c #32BC9D",
"+  c #36BE9F",
"@  c #37BFA0",
"#  c #3ABDA0",
"$  c #3DBEA1",
"%  c #48BFA5",
"&  c #39C0A3",
"*  c #3CC0A3",
"=  c #3FC2A5",
"-  c #40C3A6",
";  c #43C4A8",
":  c #46C6AA",
">  c #47C6AA",
",  c #49C7AB",
"<  c #4FC4AB",
"1  c #4FC7AD",
"2  c #4CC9AD",
"3  c #4ECAAE",
"4  c #51C8AE",
"5  c #52C8AE",
"6  c #56C8B0",
"7  c #53CDB2",
"8  c #54CDB3",
"9  c #55CEB3",
"0  c #59CEB4",
"q  c #58CFB4",
"w  c #59CFB5",
"e  c #5BCFB6",
"r  c #5CD1B7",
"t  c #5DD1B8",
"y  c #5DD2B8",
"u  c #63D4BC",
"i  c #66D6BD",
"p  c #67D7BE",
"a  c #69D8C0",
"s  c #6AD8C1",
"d  c #71DBC4",
"f  c #74DDC7",
"g  c #78DCC6",
"h  c #76DFC8",
"j  c #78DDC8",
"k  c #7CDFCA",
"l  c #7DDFCB",
"z  c #7EDFCB",
"x  c #7EE2CD",
"c  c #7FE3CE",
"v  c #C7CB81",
"b  c #C6D8A4",
"n  c #80E2CE",
"m  c #87E0CE",
"M  c #83E5D1",
"N  c #84E6D2",
"B  c #87E7D4",
"V  c #8EE1D0",
"C  c #8AE8D5",
"Z  c #8AE9D5",
"A  c #8CEAD7",
"S  c #8EEAD8",
"D  c #8FEBD8",
"F  c #93E3D2",
"G  c #92E6D4",
"H  c #90E8D6",
"J  c #91EAD8",
"K  c #91EBD9",
"L  c #92EBD9",
"P  c #95E9D8",
"I  c #96ECDA",
"U  c #99ECDB",
"Y  c #9AEDDC",
"T  c #9DEDDD",
"R  c #9FEDDD",
"E  c #9FEDDE",
"W  c #A0EEDE",
"Q  c #A2EEDF",
"!  c #A4EEDF",
"~  c #A6EFE0",
"^  c #A8EFE0",
"/  c #AAEFE1",
"(  c #ADF0E2",
")  c #AEF0E3",
"_  c #B0F1E3",
"`  c #B1F1E3",
"'  c #B3F1E4",
"]  c #B5F1E5",
"[  c #B8F2E6",
"{  c #B9F2E6",
"}  c #BCF3E7",
"|  c #BDF3E8",
" . c #BEF3E8",
".. c #BFF3E8",
"X. c #C1F4E9",
"o. c #C2F4E9",
"O. c #C3F4EA",
"+. c #C4F4EA",
"@. c None",
/* pixels */
"@.@.@.@.@.@.@.@.@.@.@.@.@.@.@.@.@.@.@.@.@.@.@.@.@.@.@.@.@.@.",
"@.@.@.@.@.@.@.@.@.@.@.@.r r r r r r @.@.@.@.@.@.@.@.@.@.@.@.",
"@.@.@.@.@.@.@.@.@.@.p f ^ / [ [ / ^ f p @.@.@.@.@.@.@.@.@.@.",
"@.@.@.@.@.@.@.@.@.@.g o.+.+.+.+.+.+.o.g @.@.@.@.@.@.@.@.@.@.",
"@.@.@.@.@.@.@.@.@.r T +.+.+.+.+.+.+.+.T r @.@.@.@.@.@.@.@.@.",
"@.@.@.@.@.@.@.@.@.x +.+.+.+.+.+.+.+.+.+.x @.@.@.@.@.@.@.@.@.",
"@.@.@.@.@.@.@.@.@.G +.+.+.+.+.+.+.+.+.+.G @.@.@.@.@.@.@.@.@.",
"@.@.@.@.@.@.@.@.@.V +.v   v +.+.v   v +.V @.@.@.@.@.@.@.@.@.",
"@.@.@.@.@.@.@.@.@.V +.. X . +.+.. X . +.V @.@.@.@.@.@.@.@.@.",
"@.@.@.@.@.@.@.@.@.V +.] b ] +.+.] b ] +.V @.@.@.@.@.@.@.@.@.",
"@.@.@.@.@.@.@.@.@.m +.+.+.+.+.+.+.+.+.+.j @.@.@.@.@.@.@.@.@.",
"@.@.@.@.@.@.@.@.@.j +.+.+.+.+.+.+.+.+.+.j @.@.@.@.@.@.@.@.@.",
"@.@.@.@.@.@.@.@.< ' +.+.+.+.+.+.+.+.+.+.' < @.@.@.@.@.@.@.@.",
"@.@.@.@.@.@.@.@.6 ] +.+.+.+.+.+.+.+.+.+.] 6 @.@.@.@.@.@.@.@.",
"@.@.@.@.@.@.@.% L +.+.+.+.+.+.+.+.+.+.+.+.L % @.@.@.@.@.@.@.",
"@.@.@.@.@.@.@.% Y +.+.+.+.+.+.+.+.+.+.+.+.Y % @.@.@.@.@.@.@.",
"@.@.@.@.@.@.@.% ) +.+.+.+.+.+.+.+.+.+.+.+.) 4 @.@.@.@.@.@.@.",
"@.@.@.@.@.@.@.5 ( ! +.+.+.+.+.+.+.+.) ' [ ( 5 @.@.@.@.@.@.@.",
"@.@.@.@.@.@.@.1 0 F +.+.+.+.+.+.+.+.K O.k n $ @.@.@.@.@.@.@.",
"@.@.@.@.@.@.@.# l | +.] +.+.+.+.+.+.D | Q e $ @.@.@.@.@.@.@.",
"@.@.@.@.@.& = s U ..+.~ +.+.' +.+.+.Z P [ D > @.@.@.@.@.@.@.",
"@.@.@.@.@.@.c Y o.+. .D +.+.R +.` +.M 7 D i > O @.@.@.@.@.@.",
"@.@.@.@.@.@.: a { } E A  .+.T ' W +.M o 8 2 - @.@.@.@.@.@.@.",
"@.@.@.@.@.@.@.@.C J 3 M [ X.I _ K [ B = @.@.@.@.@.@.@.@.@.@.",
"@.@.@.@.@.@.@.@.; 2 + N [ ..u z d ! N & @.@.@.@.@.@.@.@.@.@.",
"@.@.@.@.@.@.@.@.@.@.@.q ! R , s 9 H h @.@.@.@.@.@.@.@.@.@.@.",
"@.@.@.@.@.@.@.@.@.@.@.+ S t @.; w 2 + @.@.@.@.@.@.@.@.@.@.@.",
"@.@.@.@.@.@.@.@.@.@.@.O y O @.* @ @.@.@.@.@.@.@.@.@.@.@.@.@.",
"@.@.@.@.@.@.@.@.@.@.@.@.@.@.@.@.@.@.@.@.@.@.@.@.@.@.@.@.@.@.",
"@.@.@.@.@.@.@.@.@.@.@.@.@.@.@.@.@.@.@.@.@.@.@.@.@.@.@.@.@.@."
};
