/* XPM */
static char *result[] = {
/* columns rows colors chars-per-pixel */
"30 30 150 2 ",
"   c #D7AC00",
".  c #F6DC00",
"X  c #B0C669",
"o  c #C7C675",
"O  c #32BB9B",
"+  c #31BC9C",
"@  c #31BC9D",
"#  c #32BC9D",
"$  c #35BD9F",
"%  c #35BF9F",
"&  c #36BEA0",
"*  c #37BFA0",
"=  c #48BFA5",
"-  c #3BC0A2",
";  c #3CC0A3",
":  c #3DC2A4",
">  c #3EC2A5",
",  c #42C4A7",
"<  c #48C0A6",
"1  c #48C1A6",
"2  c #47C5A9",
"3  c #46C6AA",
"4  c #47C6AA",
"5  c #49C7AB",
"6  c #4DC4A9",
"7  c #4FC6AC",
"8  c #4CC9AD",
"9  c #4FCAAF",
"0  c #52C7AD",
"q  c #55C5AD",
"w  c #50CBB0",
"e  c #55CBB2",
"r  c #53CCB1",
"t  c #54CDB2",
"y  c #54CDB3",
"u  c #58CFB4",
"i  c #59CFB5",
"p  c #5DCDB5",
"a  c #5CCFB5",
"s  c #5FCEB7",
"d  c #59D0B6",
"f  c #5AD0B6",
"g  c #5CD1B7",
"h  c #5DD2B8",
"j  c #5FD3B9",
"k  c #66CEB8",
"l  c #61D0B8",
"z  c #61D3BA",
"x  c #61D4BB",
"c  c #63D5BC",
"v  c #64D6BC",
"b  c #65D6BD",
"n  c #66D6BE",
"m  c #67D7BE",
"M  c #68D5BD",
"N  c #6AD5BE",
"B  c #68D6BE",
"V  c #6DD4BE",
"C  c #6DD6C0",
"Z  c #6AD8C1",
"A  c #6FDBC4",
"S  c #70D8C1",
"D  c #70DBC3",
"F  c #70DAC4",
"G  c #73DDC7",
"H  c #74DDC7",
"J  c #74DEC7",
"K  c #7BD8C3",
"L  c #7ADDC7",
"P  c #78DFC9",
"I  c #7DDDC9",
"U  c #7CDFCA",
"Y  c #79E0CA",
"T  c #7BE1CB",
"R  c #7CE0CA",
"E  c #7EE3CE",
"W  c #80D9C6",
"Q  c #86DAC8",
"!  c #87DBC9",
"~  c #80E2CD",
"^  c #80E3CE",
"/  c #84E0CC",
"(  c #85E0CC",
")  c #85E1CD",
"_  c #83E5D1",
"`  c #85E6D2",
"'  c #87E6D3",
"]  c #86E7D3",
"[  c #87E7D3",
"{  c #87E7D4",
"}  c #89E3D0",
"|  c #89E3D1",
" . c #8FE2D0",
".. c #88E5D2",
"X. c #88E8D4",
"o. c #89E9D5",
"O. c #8DE9D6",
"+. c #8FEBD8",
"@. c #95E7D6",
"#. c #90E8D6",
"$. c #90EBD8",
"%. c #92EBD9",
"&. c #94EBDA",
"*. c #95EBDA",
"=. c #96ECDA",
"-. c #98EBDA",
";. c #9AEDDC",
":. c #9DEDDD",
">. c #9EEDDD",
",. c #9FEDDD",
"<. c #B1E3C0",
"1. c #A1EBDC",
"2. c #A0ECDC",
"3. c #A0EEDE",
"4. c #A1EEDE",
"5. c #A4EDDE",
"6. c #A4EEDF",
"7. c #A5EFE0",
"8. c #A6EFE0",
"9. c #A7EFE0",
"0. c #A8EFE0",
"q. c #AAEEE0",
"w. c #AAEFE1",
"e. c #ABEFE1",
"r. c #AAF0E1",
"t. c #ABF0E2",
"y. c #ACF0E2",
"u. c #AEF0E2",
"i. c #AEF0E3",
"p. c #AFF0E3",
"a. c #B0F0E3",
"s. c #B1F1E3",
"d. c #B3F1E4",
"f. c #B5F1E5",
"g. c #B6F1E5",
"h. c #B6F2E5",
"j. c #B7F2E5",
"k. c #B8F2E6",
"l. c #B9F2E6",
"z. c #BDF3E8",
"x. c #BEF3E8",
"c. c #BFF3E8",
"v. c #C5E6C7",
"b. c #C0F3E9",
"n. c #C1F3E9",
"m. c #C1F4E9",
"M. c #C2F4E9",
"N. c #C3F4EA",
"B. c #C4F4EA",
"V. c None",
/* pixels */
"V.V.V.V.V.V.V.V.V.V.V.V.V.V.V.V.V.V.V.V.V.V.V.V.V.V.V.V.V.V.",
"V.V.V.V.V.V.V.V.V.V.V.V.V.V.V.V.V.V.V.V.V.V.V.V.V.V.V.V.V.V.",
"V.V.V.V.V.V.V.V.V.V.V.V.a H H / / U H m V.V.V.V.V.V.V.V.V.V.",
"V.V.V.V.V.V.V.V.V.V.V.g $.B.B.B.B.B.B.4.^ V.V.V.V.V.V.V.V.V.",
"V.V.V.V.V.V.V.V.V.V.V.T b.B.B.B.B.B.B.B.q.z V.V.V.V.V.V.V.V.",
"V.V.V.V.V.V.V.V.V.V.v -.B.B.B.B.B.B.B.B.k.D V.V.V.V.V.V.V.V.",
"V.V.V.V.V.V.V.V.V.V.Z x.B.B.B.B.B.B.B.B.B.%.a V.V.V.V.V.V.V.",
"V.V.V.V.V.V.V.V.V.V.V m.B.o v.B.B.B.o v.B.i.0 V.V.V.V.V.V.V.",
"V.V.V.V.V.V.V.V.V.V.k m.o .   B.B.o .   B.i.= V.V.V.V.V.V.V.",
"V.V.V.V.V.V.V.V.V.V.k m.<.  X B.B.<.  X B.i.= V.V.V.V.V.V.V.",
"V.V.V.V.V.V.V.V.V.V.k m.B.B.B.B.B.B.B.B.B.8.= V.V.V.V.V.V.V.",
"V.V.V.V.V.V.V.V.V.V.p c.B.M.;.l q R s.B.B.%.= V.V.V.V.V.V.V.",
"V.V.V.V.V.V.V.V.V.V.I n.g. .Q K K W ! 1.B.e.s V.V.V.V.V.V.V.",
"V.V.V.V.V.V.V.V.V.< :.B.B.B.B.B.B.B.B.B.B.B.N V.V.V.V.V.V.V.",
"V.V.V.V.V.V.V.V.V.C k.B.B.B.B.B.B.B.B.B.B.B.@.1 V.V.V.V.V.V.",
"V.V.V.V.V.V.V.V.7 | B.B.B.B.B.B.B.B.B.B.B.B.B.S 6 V.V.V.V.V.",
"V.V.V.V.V.V.< F O.M.B.B.B.B.B.B.B.B.B.B.B.B.B.c.S e V.V.V.V.",
"V.V.V.V.V.V.V.h 0.d.d.h.B.B.B.B.B.B.B.B.B.B.B.f.~ 2 V.V.V.V.",
"V.V.V.V.V.V.V.V.g ] 4.B.B.B.B.B.B.B.B.B.u.c.r.E : V.V.V.V.V.",
"V.V.V.V.V.V.V.V.r } k.f.B.B.B.B.B.B.B.B.M.u.9.( d V.V.V.V.V.",
"V.V.V.V.V.V.V.V.$ M ,.M.B.i.B.B.B.B.B.d.B.B.&.Y - V.V.V.V.V.",
"V.V.V.V.V.V.# h ' t.M.B.B.*.B.x.M.B.B.d.B.s.n.2.b # V.V.V.V.",
"V.V.V.V.V.; f ..>.z.B.l.w.3.B.a.b.B.m.=.6.N...j.4.#.8 O V.V.",
"V.V.V.V.V.V.# 4 _ ,.,.{ o.i.M.3.x.B.c.=.Z 8.) [ b 8 @ V.V.V.",
"V.V.V.V.V.V.V.; & n 5 i ` L i.J p.B.y.7.P w Z > V.V.V.V.V.V.",
"V.V.V.V.V.V.V.V.% - V.> y +.=.n ,.b.5.G X.j + V.V.V.V.V.V.V.",
"V.V.V.V.V.V.V.V.V.V.V.u x B =., { ,.0.9 j g O V.V.V.V.V.V.V.",
"V.V.V.V.V.V.V.V.V.V.V.3 h 8 c + 3 h A 4 ; * V.V.V.V.V.V.V.V.",
"V.V.V.V.V.V.V.V.V.V.V.t V.V.# V.V.V.# V.V.V.V.V.V.V.V.V.V.V.",
"V.V.V.V.V.V.V.V.V.V.V.V.V.V.V.V.V.V.V.V.V.V.V.V.V.V.V.V.V.V."
};
