/* XPM */
static char *result[] = {
/* columns rows colors chars-per-pixel */
"30 30 106 2 ",
"   c #E0BA00",
".  c #C4A92B",
"X  c #F1D500",
"o  c #31BB9D",
"O  c #32BC9D",
"+  c #35BD9E",
"@  c #36BE9F",
"#  c #37BFA0",
"$  c #3ABDA0",
"%  c #3DBEA1",
"&  c #48BFA5",
"*  c #39C0A3",
"=  c #3CC0A3",
"-  c #3FC2A5",
";  c #40C3A6",
":  c #43C4A8",
">  c #46C6AA",
",  c #47C6AA",
"<  c #49C7AB",
"1  c #4CC4AA",
"2  c #4FC4AB",
"3  c #4FC7AD",
"4  c #4CC9AD",
"5  c #4ECAAE",
"6  c #51C8AE",
"7  c #52C8AE",
"8  c #56C8B0",
"9  c #53CDB2",
"0  c #54CDB3",
"q  c #55CEB3",
"w  c #59CEB4",
"e  c #58CFB4",
"r  c #59CFB5",
"t  c #5BCFB6",
"y  c #5CCDB4",
"u  c #5CD1B7",
"i  c #5DD1B8",
"p  c #5DD2B8",
"a  c #63D4BC",
"s  c #66D6BD",
"d  c #67D7BE",
"f  c #69D8C0",
"g  c #6AD8C1",
"h  c #71DBC4",
"j  c #74DDC7",
"k  c #78DCC6",
"l  c #76DFC8",
"z  c #78DDC8",
"x  c #7CDFCA",
"c  c #7DDFCB",
"v  c #7EDFCB",
"b  c #7EE2CD",
"n  c #7FE3CE",
"m  c #C7CB81",
"M  c #C6D8A4",
"N  c #80E2CE",
"B  c #87E0CE",
"V  c #83E5D1",
"C  c #84E6D2",
"Z  c #87E7D4",
"A  c #8EE1D0",
"S  c #8AE8D5",
"D  c #8AE9D5",
"F  c #8CEAD7",
"G  c #8EEAD8",
"H  c #8FEBD8",
"J  c #93E3D2",
"K  c #92E6D4",
"L  c #90E8D6",
"P  c #91EAD8",
"I  c #91EBD9",
"U  c #92EBD9",
"Y  c #95E9D8",
"T  c #96ECDA",
"R  c #97ECDB",
"E  c #99ECDB",
"W  c #9AEDDC",
"Q  c #9DEDDD",
"!  c #9FEDDD",
"~  c #9FEDDE",
"^  c #A0E6D7",
"/  c #A0EEDE",
"(  c #A2EEDF",
")  c #A4EEDF",
"_  c #A6EFE0",
"`  c #A8EFE0",
"'  c #AAEFE1",
"]  c #ADF0E2",
"[  c #AEF0E3",
"{  c #B0F1E3",
"}  c #B1F1E3",
"|  c #B2F0E3",
" . c #B3F1E4",
".. c #B5F1E5",
"X. c #B8F2E6",
"o. c #B9F2E6",
"O. c #BCF3E7",
"+. c #BDF3E8",
"@. c #BEF3E8",
"#. c #BFF3E8",
"$. c #C0F3E9",
"%. c #C1F4E9",
"&. c #C2F4E9",
"*. c #C3F4EA",
"=. c #C4F4EA",
"-. c None",
/* pixels */
"-.-.-.-.-.-.-.-.-.-.-.-.-.-.-.-.-.-.-.-.-.-.-.-.-.-.-.-.-.-.",
"-.-.-.-.-.-.-.-.-.-.-.-.u u u u u u -.-.-.-.-.-.-.-.-.-.-.-.",
"-.-.-.-.-.-.-.-.-.-.d j ` ' X.X.' ` j d -.-.-.-.-.-.-.-.-.-.",
"-.-.-.-.-.-.-.-.-.-.k &.=.=.=.=.=.=.&.k -.-.-.-.-.-.-.-.-.-.",
"-.-.-.-.-.-.-.-.-.u Q =.=.=.=.=.=.=.=.Q u -.-.-.-.-.-.-.-.-.",
"-.-.-.-.-.-.-.-.-.b =.=.=.=.=.=.=.=.=.=.b -.-.-.-.-.-.-.-.-.",
"-.-.-.-.-.-.-.-.-.K =.=.=.=.=.=.=.=.=.=.K -.-.-.-.-.-.-.-.-.",
"-.-.-.-.-.-.-.-.-.A =.m   m =.=.m   m =.A -.-.-.-.-.-.-.-.-.",
"-.-.-.-.-.-.-.-.-.A =.. X . =.=.. X . =.A -.-.-.-.-.-.-.-.-.",
"-.-.-.-.-.-.-.-.-.A =...M ..=.=...M ..=.A -.-.-.-.-.-.-.-.-.",
"-.-.-.-.-.-.-.-.-.B =.=.$.| ^ ^ | $.=.=.z -.-.-.-.-.-.-.-.-.",
"-.-.-.-.-.-.-.-.-.z =.R y 1 + + 1 y R =.z -.-.-.-.-.-.-.-.-.",
"-.-.-.-.-.-.-.-.2  .=.=.=.=.=.=.=.=.=.=. .2 -.-.-.-.-.-.-.-.",
"-.-.-.-.-.-.-.-.8 ..=.=.=.=.=.=.=.=.=.=...8 -.-.-.-.-.-.-.-.",
"-.-.-.-.-.-.-.& U =.=.=.=.=.=.=.=.=.=.=.=.U & -.-.-.-.-.-.-.",
"-.-.-.-.-.-.-.& W =.=.=.=.=.=.=.=.=.=.=.=.W & -.-.-.-.-.-.-.",
"-.-.-.-.-.-.-.& [ =.=.=.=.=.=.=.=.=.=.=.=.[ 6 -.-.-.-.-.-.-.",
"-.-.-.-.-.-.-.7 ] ) =.=.=.=.=.=.=.=.[  .X.] 7 -.-.-.-.-.-.-.",
"-.-.-.-.-.-.-.3 w J =.=.=.=.=.=.=.=.I *.x N % -.-.-.-.-.-.-.",
"-.-.-.-.-.-.-.$ c +.=...=.=.=.=.=.=.H +.( t % -.-.-.-.-.-.-.",
"-.-.-.-.-.* - g E #.=._ =.=. .=.=.=.D Y X.H , -.-.-.-.-.-.-.",
"-.-.-.-.-.-.n W &.=.@.H =.=.! =.} =.V 9 H s , O -.-.-.-.-.-.",
"-.-.-.-.-.-.> f o.O.~ F @.=.Q  ./ =.V o 0 4 ; -.-.-.-.-.-.-.",
"-.-.-.-.-.-.-.-.S P 5 V X.%.T { I X.Z - -.-.-.-.-.-.-.-.-.-.",
"-.-.-.-.-.-.-.-.: 4 @ C X.#.a v h ) C * -.-.-.-.-.-.-.-.-.-.",
"-.-.-.-.-.-.-.-.-.-.-.e ) ! < g q L l -.-.-.-.-.-.-.-.-.-.-.",
"-.-.-.-.-.-.-.-.-.-.-.@ G i -.: r 4 @ -.-.-.-.-.-.-.-.-.-.-.",
"-.-.-.-.-.-.-.-.-.-.-.O p O -.= # -.-.-.-.-.-.-.-.-.-.-.-.-.",
"-.-.-.-.-.-.-.-.-.-.-.-.-.-.-.-.-.-.-.-.-.-.-.-.-.-.-.-.-.-.",
"-.-.-.-.-.-.-.-.-.-.-.-.-.-.-.-.-.-.-.-.-.-.-.-.-.-.-.-.-.-."
};
