/* XPM */
static char *result[] = {
/* columns rows colors chars-per-pixel */
"30 30 115 2 ",
"   c #D7AC00",
".  c #C9A118",
"X  c #F6DC00",
"o  c #C7C675",
"O  c #32BC9D",
"+  c #32BC9E",
"@  c #35BD9F",
"#  c #35BF9F",
"$  c #36BE9F",
"%  c #39BD9F",
"&  c #48BFA5",
"*  c #3AC0A2",
"=  c #3CC0A3",
"-  c #3CC1A3",
";  c #3DC2A4",
":  c #3EC2A5",
">  c #3FC2A5",
",  c #40C3A6",
"<  c #44C5A8",
"1  c #46C6AA",
"2  c #4FC4AB",
"3  c #4EC5AB",
"4  c #4CC9AD",
"5  c #4ECAAE",
"6  c #51C8AE",
"7  c #54CDB3",
"8  c #56CDB3",
"9  c #56CEB4",
"0  c #5ACAB1",
"q  c #58CEB4",
"w  c #59CFB5",
"e  c #5CCFB5",
"r  c #5AD0B6",
"t  c #5CD1B8",
"y  c #5ED2B9",
"u  c #64D3BA",
"i  c #68D4BE",
"p  c #6AD7BF",
"a  c #69D8C0",
"s  c #6AD8C1",
"d  c #6BD9C1",
"f  c #6FDBC4",
"g  c #72DBC5",
"h  c #74DAC4",
"j  c #74DDC7",
"k  c #76DEC7",
"l  c #7BD8C3",
"z  c #78DCC6",
"x  c #78DDC8",
"c  c #7ADEC9",
"v  c #7ADFCA",
"b  c #7EDFCB",
"n  c #7FDFCB",
"m  c #79E0CA",
"M  c #7EE2CD",
"N  c #A2D59F",
"B  c #85DAC7",
"V  c #8BDECC",
"C  c #84E0CC",
"Z  c #87E0CE",
"A  c #84E6D2",
"S  c #85E6D2",
"D  c #87E6D3",
"F  c #87E7D4",
"G  c #8EE1D0",
"H  c #8DE9D6",
"J  c #8EE8D6",
"K  c #8FEBD8",
"L  c #91E4D2",
"P  c #91E7D5",
"I  c #95E7D6",
"U  c #91EAD8",
"Y  c #91EBD9",
"T  c #92EBD9",
"R  c #95EBDA",
"E  c #98EBDA",
"W  c #9DEADA",
"Q  c #9DEDDD",
"!  c #9FEDDD",
"~  c #9FEEDE",
"^  c #A0EEDE",
"/  c #A3EEDF",
"(  c #A6EDDE",
")  c #A5EFDF",
"_  c #AAEBDD",
"`  c #A6EFE0",
"'  c #A7EFE0",
"]  c #A8EEE0",
"[  c #A8EFE0",
"{  c #A9EFE1",
"}  c #AAEFE1",
"|  c #ABEFE1",
" . c #ABF0E1",
".. c #ACF0E2",
"X. c #ADF0E2",
"o. c #AEF0E2",
"O. c #AEF0E3",
"+. c #AFF0E3",
"@. c #B3F1E4",
"#. c #B4F1E5",
"$. c #B5F1E5",
"%. c #B6F2E5",
"&. c #B8F2E6",
"*. c #B9F2E6",
"=. c #BAF2E6",
"-. c #BCF3E7",
";. c #BDF3E8",
":. c #BEF3E8",
">. c #BFF3E8",
",. c #C1F3E9",
"<. c #C1F4E9",
"1. c #C2F4E9",
"2. c #C3F4EA",
"3. c #C4F4EA",
"4. c None",
/* pixels */
"4.4.4.4.4.4.4.4.4.4.4.4.4.4.4.4.4.4.4.4.4.4.4.4.4.4.4.4.4.4.",
"4.4.4.4.4.4.4.4.4.4.4.4.4.4.4.4.4.4.4.4.4.4.4.4.4.4.4.4.4.4.",
"4.4.4.4.4.4.4.4.4.4.4.e j k C C k j e 4.4.4.4.4.4.4.4.4.4.4.",
"4.4.4.4.4.4.4.4.4.4.d Y 3.3.3.3.3.3.Y d 4.4.4.4.4.4.4.4.4.4.",
"4.4.4.4.4.4.4.4.4.4.P 2.3.3.3.3.3.3.2.P 4.4.4.4.4.4.4.4.4.4.",
"4.4.4.4.4.4.4.4.4.a { 3.3.3.3.3.3.3.3.{ a 4.4.4.4.4.4.4.4.4.",
"4.4.4.4.4.4.4.4.4.M 3.3.3.3.3.3.3.3.3.3.M 4.4.4.4.4.4.4.4.4.",
"4.4.4.4.4.4.4.4.4.L 3.3.o 3.3.3.3.o 3.3.L 4.4.4.4.4.4.4.4.4.",
"4.4.4.4.4.4.4.4.4.G 3.. X . 3.3.. X . 3.G 4.4.4.4.4.4.4.4.4.",
"4.4.4.4.4.4.4.4.4.G 3.N   N 3.3.N   N 3.G 4.4.4.4.4.4.4.4.4.",
"4.4.4.4.4.4.4.4.4.G 3.3.3.3.3.3.3.3.3.3.Z 4.4.4.4.4.4.4.4.4.",
"4.4.4.4.4.4.4.4.4.c 3.3.*.H 0 0 H *.3.3.x 4.4.4.4.4.4.4.4.4.",
"4.4.4.4.4.4.4.4.3 I 3.| V B l l B V | 3.I 3 4.4.4.4.4.4.4.4.",
"4.4.4.4.4.4.4.4.2 @.3.3.3.3.3.3.3.3.3.3.@.2 4.4.4.4.4.4.4.4.",
"4.4.4.4.4.4.4.4.b >.3.3.3.3.3.3.3.3.3.3.>.b 4.4.4.4.4.4.4.4.",
"4.4.4.4.4.4.4.& T 3.3.3.3.3.3.3.3.3.3.3.3.T & 4.4.4.4.4.4.4.",
"4.4.4.4.4.4.4.i >.3.3.3.3.3.3.3.3.3.3.3.3.>.i 4.4.4.4.4.4.4.",
"4.4.4.4.4.4.6 } 2.&.3.3.3.3.3.3.3.3.3.3.-.3._ 6 4.4.4.4.4.4.",
"4.4.4.4.4.4.q ] ` #.3.3.3.3.3.3.3.3.3.$./ =.,.8 4.4.4.4.4.4.",
"4.4.4.4.4.4.% p ) 1.3.$.3.3.3.3.3.3.3.3.&./ u O 4.4.4.4.4.4.",
"4.4.4.4.; > w S o.1.3.O.3.:.3.3.3.3.O.3.>.X.g 5 > ; 4.4.4.4.",
"4.4.4.4.# a F E <.2.:.T 3.O.3.3.3.3...:.3.O.( W a # 4.4.4.4.",
"4.4.4.4.4.> F } 3.-...v 3.^ 3.3.3.:.K ;.3.3.} F > 4.4.4.4.4.",
"4.4.4.4.4.4.O f { U m * %.R 3.Q 3.%.[ ! +. .f O 4.4.4.4.4.4.",
"4.4.4.4.4.4.4.= s 4 < m [ :.&.Q $.~ ' t 9 s = 4.4.4.4.4.4.4.",
"4.4.4.4.4.4.4.4.+ 4.$ A S :...h K n J * 4.+ 4.4.4.4.4.4.4.4.",
"4.4.4.4.4.4.4.4.4.4.> : j T z h K 4 D @ 4.4.4.4.4.4.4.4.4.4.",
"4.4.4.4.4.4.4.4.4.4.= r - y 7 7 y , 1 4.4.4.4.4.4.4.4.4.4.4.",
"4.4.4.4.4.4.4.4.4.4.: $ 4.O 4.4.O 4.4.4.4.4.4.4.4.4.4.4.4.4.",
"4.4.4.4.4.4.4.4.4.4.4.4.4.4.4.4.4.4.4.4.4.4.4.4.4.4.4.4.4.4."
};
