/* XPM */
static char *result[] = {
/* columns rows colors chars-per-pixel */
"32 32 8 1 ",
"  c black",
". c #9B8914",
"X c #EDCD00",
"o c #FFE121",
"O c #FFED86",
"+ c #FFF0A4",
"@ c #FFF1AB",
"# c None",
/* pixels */
"############        ############",
"############        ############",
"##########  oooooooo  ##########",
"##########  oooooooo  ##########",
"##########  ooooXXoo  ##########",
"##########  ooooXXoo  ##########",
"########  oooo@@ooXXo. #########",
"########  oooo@@ooXXo. #########",
"########  oooo@@@@XXo. #########",
"########  oooo@@OOXXo. #########",
"########  oooo@@ooXXo. #########",
"########  oooo@@++XXo. #########",
"########  oooo@@@@XXo. #########",
"########  XXXX@@ooXXo. #########",
"########  XXXX@@ooXXo. #########",
"########  XXXX@@ooXXo. #########",
"########  XXXX@@ooXXo. #########",
"########  XXXX@@ooXXo. #########",
"########  XXXX@@ooXXo. #########",
"########  XXXX@@ooXXo. #########",
"########  XXXX@@ooXXo. #########",
"########  XXXX@@XXXXo. #########",
"########  XXXX@@XXXXo. #########",
"########  XXXX@@XXXXo. #########",
"########  XXXX@@XXXXo. #########",
"########  XXXX@@XXXXo. #########",
"##########  XXXX@@oo  ##########",
"##########  XXXX@@oo  ##########",
"##########  XXXXoooo  ##########",
"##########  XXXXoooo  ##########",
"############        ############",
"############        ############"
};
