/* XPM */
static char *_5125_4856f417dd1e20786226b45c63998bed29bf44d667a01dbd0d6d3b2c941a6b21[] = {
/* columns rows colors chars-per-pixel */
"32 32 17 1 ",
"  c #302C2E",
". c #6A383D",
"X c #39314B",
"o c #2E3C6C",
"O c #5E3643",
"+ c #3C5956",
"@ c #397B44",
"# c #394778",
"$ c #7A444A",
"% c #874950",
"& c #A05B53",
"* c #DBA974",
"= c #28608A",
"- c #DCB58C",
"; c #E7B785",
": c #F4CCA1",
"> c None",
/* pixels */
">>>>>>>>>>>>>>>>>>>>>>>>>>>>>>>>",
">>>>>>>>>>>>>>>>>>>>>>>>>>>>>>>>",
">>>>>>>>>>>>>>>>>>>>>>>>>>>>>>>>",
">>>>>>>>>>>>>>>>>>>>>>>>>>>>>>>>",
">>>>>>>>>>>>>>>>>>>>>>>>>>>>>>>>",
">>>>>>>>>>>>>>>>>>>>>>>>>>>>>>>>",
">>>>>>>>>>>>>>>>>>>>>>>>>>>>>>>>",
">>>>>>>>>>>>>>>>>   >>>>>>>>>>>>",
">>>>>>>>>>>>>>   &&& >>>>>>>>>>>",
">>>>>>>>>>>>  &&&&&&& >>>>>>>>>>",
">>>>>>>>>>> $$$$$$$&& >>>>>>>>>>",
">>>>>>>>>>> $$*;;;;*& >>>>>>>>>>",
">>>>>>>>>>> $$:::**: >>>>>>>>>>>",
">>>>>>>>>>> ;&::#:#: >>>>>>>>>>>",
">>>>>>>>>>> *&&:o:o: >>>>>>>>>>>",
">>>>>>>>>>> %&&::-:: >>>>>>>>>>>",
">>>>>>>>>>> $%&&&&&& >>>>>>>>>>>",
">>>>>>>>>>>  $$$$$$$ >>>>>>>>>>>",
">>>>>>>>>>     .... >>>>>>>>>>>>",
">>>>>>>>> @ = @  * @ >>>>>>>>>>>",
">>>>>>>>> @ =:    # *  >>>>>>>>>",
">>>>>>>>> + X;*: #= ;*: >>>>>>>>",
">>>>>>>>> ++ *** =# ;** >>>>>>>>",
">>>>>>>>> ++     X     >>>>>>>>>",
">>>>>>>>>>   XXXXOOO >>>>>>>>>>>",
">>>>>>>>>>>> OOOO OO >>>>>>>>>>>",
">>>>>>>>>>>> OOO  O$  >>>>>>>>>>",
">>>>>>>>>>> $OO > O$$ >>>>>>>>>>",
">>>>>>>>>>> $$$ > OOO >>>>>>>>>>",
">>>>>>>>>>> OO >>>>>>>>>>>>>>>>>",
">>>>>>>>>>>>>>>>>>>>>>>>>>>>>>>>",
">>>>>>>>>>>>>>>>>>>>>>>>>>>>>>>>"
};
