/* XPM */
static char *_566_2b9123eec9a48f78e71b32f47bb6708177df10ed45581f4ffb0472b2630750c9[] = {
/* columns rows colors chars-per-pixel */
"32 32 16 1 ",
"  c #302C2E",
". c #6A383D",
"X c #39314B",
"o c #2E3C6C",
"O c #5E3643",
"+ c #3C5956",
"@ c #397B44",
"# c #394778",
"$ c #7A444A",
"% c #874950",
"& c #A05B53",
"* c #DBA974",
"= c #28608A",
"- c #E7B785",
"; c #F4CCA1",
": c None",
/* pixels */
"::::::::::::::::::::::::::::::::",
"::::::::::::::::::::::::::::::::",
"::::::::::::::::::::::::::::::::",
"::::::::::::::::::::::::::::::::",
"::::::::::::::::::::::::::::::::",
"::::::::::::::::::::::::::::::::",
"::::::::::::::::::::::::::::::::",
":::::::::::::::::   ::::::::::::",
"::::::::::::::   &&& :::::::::::",
"::::::::::::  &&&&&&& ::::::::::",
"::::::::::: $$$$$$$&& ::::::::::",
"::::::::::: $$*----*& ::::::::::",
"::::::::::: $$;;;**; :::::::::::",
"::::::::::: -&;;#;#; :::::::::::",
"::::::::::: *&&  ;o;   :::::::::",
"::::::::::: %& ;* ;; ;* ::::::::",
"::::::::::: $% ** && ** ::::::::",
":::::::::::  $ -- $$ -- ::::::::",
"::::::::::     -- .  -- ::::::::",
"::::::::: @ #X---  @ X- ::::::::",
"::::::::: @ #=X-  # == :::::::::",
"::::::::: + ##= =#=   ::::::::::",
"::::::::: ++   =#XX ::::::::::::",
"::::::::: ++ #=XXOOO :::::::::::",
"::::::::::  XXXOO OO :::::::::::",
"::::::::::: OOOOO O$O ::::::::::",
"::::::::::: OOO   O$$ ::::::::::",
":::::::::: $OO :: OOO ::::::::::",
":::::::::: $$$ :::::::::::::::::",
":::::::::: OO ::::::::::::::::::",
"::::::::::::::::::::::::::::::::",
"::::::::::::::::::::::::::::::::"
};
